<svg width="32" height="32" viewBox="0 0 32 32" fill="none" xmlns="http://www.w3.org/2000/svg">
<path d="M14.1334 29.3332C13.0001 29.3332 12.139 28.9943 11.5501 28.3165C10.9612 27.6387 10.6667 26.8665 10.6667 25.9998C10.6667 25.4221 10.7945 24.8609 11.0501 24.3165C11.3056 23.7721 11.7001 23.3221 12.2334 22.9665C12.7223 22.6554 13.1279 22.2387 13.4501 21.7165C13.7723 21.1943 14.0112 20.4776 14.1667 19.5665C14.1445 19.5665 14.1334 19.5609 14.1334 19.5498C14.1334 19.5387 14.1112 19.5221 14.0667 19.4998L10.2001 20.8665C9.8223 20.9998 9.45564 21.1109 9.10008 21.1998C8.74453 21.2887 8.37786 21.3332 8.00008 21.3332C6.60008 21.3332 5.36119 20.7221 4.28341 19.4998C3.20564 18.2776 2.66675 16.4887 2.66675 14.1332C2.66675 12.9998 3.00564 12.1387 3.68341 11.5498C4.36119 10.9609 5.1223 10.6665 5.96675 10.6665C6.54453 10.6665 7.11119 10.7943 7.66675 11.0498C8.2223 11.3054 8.67786 11.6998 9.03341 12.2332C9.34453 12.7221 9.78341 13.1387 10.3501 13.4832C10.9167 13.8276 11.6112 14.0554 12.4334 14.1665C12.4556 14.1443 12.4723 14.1221 12.4834 14.0998C12.4945 14.0776 12.5001 14.0554 12.5001 14.0332L11.1334 10.1998C11.0001 9.82206 10.889 9.45539 10.8001 9.09984C10.7112 8.74428 10.6667 8.38873 10.6667 8.03317C10.6667 6.61095 11.2779 5.36095 12.5001 4.28317C13.7223 3.20539 15.5112 2.6665 17.8667 2.6665C19.0001 2.6665 19.8612 3.00539 20.4501 3.68317C21.039 4.36095 21.3334 5.12206 21.3334 5.9665C21.3334 6.54428 21.2056 7.11095 20.9501 7.6665C20.6945 8.22206 20.3001 8.67761 19.7667 9.03317C19.189 9.41095 18.739 9.91095 18.4167 10.5332C18.0945 11.1554 17.9112 11.7998 17.8667 12.4665C17.889 12.4887 17.9056 12.4943 17.9167 12.4832C17.9279 12.4721 17.9445 12.4887 17.9667 12.5332L21.8001 11.0998C22.1779 10.9665 22.539 10.8609 22.8834 10.7832C23.2279 10.7054 23.589 10.6665 23.9667 10.6665C25.7667 10.6665 27.1112 11.4109 28.0001 12.8998C28.889 14.3887 29.3334 16.0443 29.3334 17.8665C29.3334 18.9998 28.9779 19.8609 28.2667 20.4498C27.5556 21.0387 26.7667 21.3332 25.9001 21.3332C25.3445 21.3332 24.8056 21.2054 24.2834 20.9498C23.7612 20.6943 23.3223 20.2998 22.9667 19.7665C22.6556 19.2776 22.239 18.8721 21.7167 18.5498C21.1945 18.2276 20.4779 17.9776 19.5667 17.7998L19.5167 17.8998C19.5056 17.9221 19.489 17.9443 19.4667 17.9665L20.8667 21.7998C21.0001 22.1554 21.1112 22.4943 21.2001 22.8165C21.289 23.1387 21.3334 23.4776 21.3334 23.8332C21.3556 25.2776 20.7556 26.5554 19.5334 27.6665C18.3112 28.7776 16.5112 29.3332 14.1334 29.3332ZM16.0001 17.9998C16.5556 17.9998 17.0279 17.8054 17.4167 17.4165C17.8056 17.0276 18.0001 16.5554 18.0001 15.9998C18.0001 15.4443 17.8056 14.9721 17.4167 14.5832C17.0279 14.1943 16.5556 13.9998 16.0001 13.9998C15.4445 13.9998 14.9723 14.1943 14.5834 14.5832C14.1945 14.9721 14.0001 15.4443 14.0001 15.9998C14.0001 16.5554 14.1945 17.0276 14.5834 17.4165C14.9723 17.8054 15.4445 17.9998 16.0001 17.9998Z" fill="white"/>
</svg>
