<svg width="32" height="32" viewBox="0 0 32 32" fill="none" xmlns="http://www.w3.org/2000/svg">
<path d="M15.0001 29.3332V22.8332L10.0334 27.7998L8.60008 26.3998L15.0001 19.9998V16.9998H12.0001L5.73341 23.2665L4.26675 21.8998L9.16675 16.9998H2.66675V14.9998H9.16675L4.16675 9.99984L5.60008 8.5665L12.0001 14.9998H15.0001V11.9665L8.73341 5.69984L10.1334 4.23317L15.0001 9.13317V2.6665H17.0001V9.13317L22.0001 4.13317L23.4001 5.5665L17.0001 11.9665V14.9998H20.0334L26.3334 8.69984L27.7667 10.0998L22.8667 14.9998H29.3334V16.9998H22.8667L27.8001 21.9665L26.4334 23.3998L20.0334 16.9998H17.0001V19.9998L23.4001 26.4332L22.0334 27.8665L17.0001 22.8332V29.3332H15.0001Z" fill="white"/>
</svg>
