<svg width="13" height="22" viewBox="0 0 13 22" fill="none" xmlns="http://www.w3.org/2000/svg">
<path d="M6.45833 21.8333C4.81528 21.8333 3.41146 21.2691 2.24688 20.1406C1.08229 19.0122 0.5 17.6264 0.5 15.9833V4.3375C0.5 3.18195 0.910764 2.19792 1.73229 1.38542C2.55382 0.572922 3.54236 0.166672 4.69792 0.166672C5.87153 0.166672 6.86458 0.572922 7.67708 1.38542C8.48958 2.19792 8.89583 3.19098 8.89583 4.36459V15.0354C8.89583 15.7215 8.66111 16.3038 8.19167 16.7823C7.72222 17.2608 7.14444 17.5 6.45833 17.5C5.77222 17.5 5.19444 17.2427 4.725 16.7281C4.25556 16.2135 4.02083 15.6042 4.02083 14.9V4.28334H5.10417V14.9813C5.10417 15.3785 5.23507 15.717 5.49687 15.9969C5.75868 16.2767 6.07917 16.4167 6.45833 16.4167C6.8375 16.4167 7.15799 16.2813 7.41979 16.0104C7.6816 15.7396 7.8125 15.4146 7.8125 15.0354V4.3375C7.8125 3.47084 7.51007 2.73959 6.90521 2.14375C6.30035 1.54792 5.56458 1.25001 4.69792 1.25001C3.83125 1.25001 3.09549 1.54792 2.49063 2.14375C1.88576 2.73959 1.58333 3.47084 1.58333 4.3375V16.0375C1.58333 17.3556 2.06181 18.4705 3.01875 19.3823C3.97569 20.2941 5.12222 20.75 6.45833 20.75C7.8125 20.75 8.96354 20.2896 9.91146 19.3688C10.8594 18.4479 11.3333 17.3194 11.3333 15.9833V4.28334H12.4167V15.9563C12.4167 17.5993 11.8344 18.9896 10.6698 20.1271C9.50521 21.2646 8.10139 21.8333 6.45833 21.8333Z" fill="#1A1714"/>
</svg>
