<svg width="44" height="44" viewBox="0 0 44 44" fill="none" xmlns="http://www.w3.org/2000/svg">
<path d="M19.8946 0.0945015C13.0196 0.807781 6.99534 4.54606 3.3344 10.3726C-1.85623 18.6226 -0.885131 29.5281 5.6719 36.7125C9.30706 40.6914 13.8446 43.0719 19.293 43.8453C20.3071 43.9914 23.6844 43.9828 24.75 43.8453C29.7258 43.1578 34.1774 40.9492 37.5633 37.4945C38.6805 36.3601 38.9125 36.0937 39.6516 35.114C41.8516 32.1836 43.2867 28.6086 43.8453 24.707C43.9914 23.6929 43.9914 20.307 43.8453 19.2929C43.4758 16.689 42.7969 14.4718 41.7227 12.2976C40.5711 9.9945 39.4024 8.3531 37.5719 6.50544C34.1774 3.06794 29.9321 0.928093 25.0508 0.206219C23.9938 0.0515327 20.943 -0.0172195 19.8946 0.0945015ZM25.3516 8.79138C33.043 10.6218 37.4086 18.3906 34.9336 25.8328C34.2977 27.7578 33.2836 29.3648 31.7539 30.9031C29.8203 32.8453 27.7321 33.9797 25.0078 34.5554C24.2602 34.7187 23.8305 34.7531 22.5156 34.7531C20.3414 34.7617 18.9836 34.4781 17.0672 33.6359C16.5946 33.4297 16.1477 33.2578 16.0703 33.2578C16.0016 33.2578 14.4375 33.6617 12.5899 34.1515C10.7508 34.6328 9.22971 35.0281 9.22112 35.0195C9.20393 35.0109 9.61643 33.4812 10.1235 31.625L11.0516 28.239L10.6477 27.414C9.73674 25.5664 9.33284 23.8047 9.33284 21.6562C9.34143 17.9781 10.6391 14.8586 13.2344 12.289C15.2711 10.2695 17.8492 9.01481 20.8399 8.55935C20.986 8.54216 21.8539 8.53357 22.7735 8.55075C24.2 8.57653 24.5867 8.61091 25.3516 8.79138Z" fill="white"/>
<path d="M21.5274 10.7594C17.3165 11.0602 13.4665 14.068 12.1173 18.1156C11.6876 19.4219 11.5673 20.1953 11.5673 21.6562C11.5673 23.882 11.9884 25.3687 13.243 27.5516L13.4407 27.9125L12.9079 29.8633C12.6157 30.9375 12.3837 31.8398 12.4094 31.857C12.4266 31.8742 13.3376 31.6508 14.4376 31.3672L16.4399 30.8344L17.4798 31.3586C19.1899 32.2094 20.6766 32.5703 22.5243 32.5703C27.1391 32.5703 31.3587 29.5281 32.8196 25.1281C33.2579 23.7961 33.3696 23.1172 33.3696 21.6562C33.3696 20.6078 33.3266 20.1352 33.1805 19.4219C32.2438 15.0305 28.7891 11.6617 24.4063 10.8797C23.4696 10.7164 22.6016 10.682 21.5274 10.7594ZM18.9235 15.7523C19.1985 16.0617 20.3071 18.8031 20.2469 19.0352C20.2212 19.1383 19.9634 19.525 19.6798 19.9031C19.3962 20.2727 19.1641 20.6336 19.1641 20.7109C19.1641 20.8742 19.8516 21.8969 20.3844 22.5242C20.9602 23.2031 22.0516 24.0281 22.9712 24.5008C24.1313 25.0766 24.1915 25.0766 24.8532 24.2602C25.6782 23.2547 25.7555 23.1859 25.979 23.2461C26.2368 23.3234 28.6946 24.475 28.9524 24.6383C29.1415 24.7586 29.1501 24.8102 29.1071 25.343C29.0813 25.6609 28.9954 26.082 28.918 26.2797C28.7376 26.7266 28.0844 27.3281 27.4313 27.6461C26.9759 27.8695 26.8641 27.8867 25.9102 27.8867C24.9563 27.8867 24.8188 27.8609 24.0626 27.5945C22.8165 27.1477 22.043 26.7781 21.1063 26.1508C19.3016 24.9477 17.1618 22.5328 16.2852 20.7023C15.9071 19.9031 15.7868 19.3016 15.8298 18.3906C15.8727 17.5398 16.0876 16.9812 16.6548 16.2766C17.1188 15.7094 17.4282 15.5633 18.1587 15.5547C18.6657 15.5547 18.7688 15.5805 18.9235 15.7523Z" fill="white"/>
</svg>
