<svg width="305" height="108" viewBox="0 0 305 108" fill="none" xmlns="http://www.w3.org/2000/svg">
<path d="M95.3426 70.8711H85.0789L98.9652 34.646H106.21L120.096 71.4749H111.04L108.021 63.6261H97.7577L95.3426 70.8711Z" fill="white"/>
<path d="M125.53 70.8709V35.2495H132.676L132.775 49.7396H146.058V35.2495H153.907V70.8709H146.058V55.7771H132.775V70.8709H125.53Z" fill="white"/>
<path fill-rule="evenodd" clip-rule="evenodd" d="M161.152 63.6261V72.0786H197.377V63.0224H193.15V34.646L169.604 35.2497L167.793 56.3811L164.774 63.0224L161.152 63.6261ZM182.283 46.1173H176.245V60.6073H182.283V46.1173Z" fill="white"/>
<path d="M204.018 70.8709V35.2495H226.96V41.8908H211.263V49.7396H224.545V55.7771H211.263V64.2296H226.96V70.8709H204.018Z" fill="white"/>
<path d="M234.206 70.8709V35.2495H242.055V57.5883L255.337 35.2495H263.186V70.8709H255.337V48.5321L242.055 70.8709H234.206Z" fill="white"/>
<path d="M272.242 55.7771L271.638 35.2495H279.487V43.0983L280.694 50.3433L290.958 50.9471V34.6457L300.015 34.042V71.4746L291.562 72.0784L290.958 58.1921L278.883 58.7958L272.242 55.7771Z" fill="white"/>
<mask id="path-7-outside-1_51_436" maskUnits="userSpaceOnUse" x="78.7488" y="29.835" width="226" height="46" fill="black">
<rect fill="white" x="78.7488" y="29.835" width="226" height="46"/>
<path fill-rule="evenodd" clip-rule="evenodd" d="M102.588 45.3179L106.678 57.5889H98.4973L102.588 45.3179ZM101.848 55.1739H103.327L102.588 52.9548L101.848 55.1739Z"/>
<path fill-rule="evenodd" clip-rule="evenodd" d="M107.659 32.835H97.5168L82.7488 73.2864H96.2129L98.6279 66.0413H107.151L109.566 73.2864H122.427L107.659 32.835ZM86.2014 70.8714L99.206 35.25H105.969L118.974 70.8714H111.307L108.892 63.6263H96.8873L94.4723 70.8714H86.2014Z"/>
<path fill-rule="evenodd" clip-rule="evenodd" d="M135.19 32.835H123.115V73.2864H135.19V58.1926H143.643V73.2864H156.322V32.835H143.643V47.325H135.19V32.835ZM125.53 70.8714V35.25H132.775V49.74H146.058V35.25H153.907V70.8714H146.058V55.7776H132.775V70.8714H125.53Z"/>
<path fill-rule="evenodd" clip-rule="evenodd" d="M176.957 41.8912H185.302V64.2301H172.106L172.708 62.5771L172.743 62.4797L172.817 62.2724L172.875 62.1112C172.987 61.7952 173.145 61.3482 173.324 60.8259C173.685 59.7782 174.131 58.4391 174.484 57.2465C175.228 54.7298 175.822 51.1845 176.232 48.2207C176.435 46.7488 176.591 45.4378 176.696 44.4951C176.749 44.0239 176.788 43.6452 176.815 43.3849C176.828 43.2548 176.838 43.1542 176.845 43.0866L176.852 43.0102L176.854 42.9868L176.957 41.8912ZM179.146 44.3063C179.131 44.4468 179.115 44.5992 179.096 44.7624C178.99 45.7209 178.831 47.0537 178.624 48.5517C178.212 51.5279 177.599 55.2276 176.8 57.9311C176.432 59.1738 175.973 60.5516 175.608 61.612L175.538 61.8151H182.887V44.3063H179.146Z"/>
<path fill-rule="evenodd" clip-rule="evenodd" d="M195.566 32.835H167.189V34.0428L167.189 34.0754L167.189 34.1762C167.189 34.2653 167.188 34.3978 167.187 34.5696C167.185 34.9133 167.18 35.4148 167.17 36.0432C167.152 37.3005 167.114 39.0649 167.039 41.0919C166.889 45.1556 166.588 50.2369 165.994 54.3993C165.769 55.9703 164.942 57.9354 164.109 59.5855C163.702 60.3933 163.309 61.0948 163.018 61.5938C162.972 61.6729 162.929 61.7468 162.888 61.8151H159.944V73.2864H199.188V61.8151H195.566V32.835ZM169.585 36.0793C169.59 35.7718 169.593 35.4942 169.596 35.25H193.151V64.2301H196.773V70.8714H162.359V64.2301H164.23L164.586 63.6699L164.587 63.6687L164.589 63.665L164.597 63.6523L164.626 63.6062L164.676 63.5263L164.732 63.4353C164.822 63.2879 164.95 63.0753 165.105 62.8098C165.414 62.2795 165.831 61.5345 166.266 60.6735C167.117 58.9861 168.101 56.725 168.385 54.7408C168.997 50.4506 169.301 45.2682 169.452 41.1812C169.528 39.1329 169.566 37.3503 169.585 36.0793ZM163.567 63.0226C164.586 63.6706 164.586 63.6699 164.586 63.6699L163.567 63.0226Z"/>
<path fill-rule="evenodd" clip-rule="evenodd" d="M229.376 32.835H201.603V73.2864H229.376V61.8151H213.678V58.1926H226.961V47.325H213.678V44.3063H229.376V32.835ZM204.018 70.8714V35.25H226.961V41.8912H211.263V49.74H224.546V55.7776H211.263V64.2301H226.961V70.8714H204.018Z"/>
<path fill-rule="evenodd" clip-rule="evenodd" d="M281.298 32.835H269.223V49.4517C269.223 55.5789 274.286 60.4947 280.41 60.3146L289.751 60.0399V73.2864H301.821L302 32.835H289.751V49.2015L283.847 49.5295C282.463 49.6064 281.298 48.5046 281.298 47.1182V32.835ZM271.638 49.4517V35.25H278.883V47.1182C278.883 49.891 281.213 52.0946 283.981 51.9408L292.166 51.4861V35.25H299.574L299.416 70.8714H292.166V57.5528L280.339 57.9006C275.576 58.0407 271.638 54.2173 271.638 49.4517Z"/>
<path fill-rule="evenodd" clip-rule="evenodd" d="M231.791 32.835H244.47V48.9637L254.046 32.835H265.601V73.2864H252.922V57.1576L243.346 73.2864H231.791V32.835ZM234.206 35.25V70.8714H241.971L255.337 48.3599V70.8714H263.186V35.25H255.421L242.055 57.7614V35.25H234.206Z"/>
</mask>
<path fill-rule="evenodd" clip-rule="evenodd" d="M102.588 45.3179L106.678 57.5889H98.4973L102.588 45.3179ZM101.848 55.1739H103.327L102.588 52.9548L101.848 55.1739Z" fill="#1A1714"/>
<path fill-rule="evenodd" clip-rule="evenodd" d="M107.659 32.835H97.5168L82.7488 73.2864H96.2129L98.6279 66.0413H107.151L109.566 73.2864H122.427L107.659 32.835ZM86.2014 70.8714L99.206 35.25H105.969L118.974 70.8714H111.307L108.892 63.6263H96.8873L94.4723 70.8714H86.2014Z" fill="#1A1714"/>
<path fill-rule="evenodd" clip-rule="evenodd" d="M135.19 32.835H123.115V73.2864H135.19V58.1926H143.643V73.2864H156.322V32.835H143.643V47.325H135.19V32.835ZM125.53 70.8714V35.25H132.775V49.74H146.058V35.25H153.907V70.8714H146.058V55.7776H132.775V70.8714H125.53Z" fill="#1A1714"/>
<path fill-rule="evenodd" clip-rule="evenodd" d="M176.957 41.8912H185.302V64.2301H172.106L172.708 62.5771L172.743 62.4797L172.817 62.2724L172.875 62.1112C172.987 61.7952 173.145 61.3482 173.324 60.8259C173.685 59.7782 174.131 58.4391 174.484 57.2465C175.228 54.7298 175.822 51.1845 176.232 48.2207C176.435 46.7488 176.591 45.4378 176.696 44.4951C176.749 44.0239 176.788 43.6452 176.815 43.3849C176.828 43.2548 176.838 43.1542 176.845 43.0866L176.852 43.0102L176.854 42.9868L176.957 41.8912ZM179.146 44.3063C179.131 44.4468 179.115 44.5992 179.096 44.7624C178.99 45.7209 178.831 47.0537 178.624 48.5517C178.212 51.5279 177.599 55.2276 176.8 57.9311C176.432 59.1738 175.973 60.5516 175.608 61.612L175.538 61.8151H182.887V44.3063H179.146Z" fill="#1A1714"/>
<path fill-rule="evenodd" clip-rule="evenodd" d="M195.566 32.835H167.189V34.0428L167.189 34.0754L167.189 34.1762C167.189 34.2653 167.188 34.3978 167.187 34.5696C167.185 34.9133 167.18 35.4148 167.17 36.0432C167.152 37.3005 167.114 39.0649 167.039 41.0919C166.889 45.1556 166.588 50.2369 165.994 54.3993C165.769 55.9703 164.942 57.9354 164.109 59.5855C163.702 60.3933 163.309 61.0948 163.018 61.5938C162.972 61.6729 162.929 61.7468 162.888 61.8151H159.944V73.2864H199.188V61.8151H195.566V32.835ZM169.585 36.0793C169.59 35.7718 169.593 35.4942 169.596 35.25H193.151V64.2301H196.773V70.8714H162.359V64.2301H164.23L164.586 63.6699L164.587 63.6687L164.589 63.665L164.597 63.6523L164.626 63.6062L164.676 63.5263L164.732 63.4353C164.822 63.2879 164.95 63.0753 165.105 62.8098C165.414 62.2795 165.831 61.5345 166.266 60.6735C167.117 58.9861 168.101 56.725 168.385 54.7408C168.997 50.4506 169.301 45.2682 169.452 41.1812C169.528 39.1329 169.566 37.3503 169.585 36.0793ZM163.567 63.0226C164.586 63.6706 164.586 63.6699 164.586 63.6699L163.567 63.0226Z" fill="#1A1714"/>
<path fill-rule="evenodd" clip-rule="evenodd" d="M229.376 32.835H201.603V73.2864H229.376V61.8151H213.678V58.1926H226.961V47.325H213.678V44.3063H229.376V32.835ZM204.018 70.8714V35.25H226.961V41.8912H211.263V49.74H224.546V55.7776H211.263V64.2301H226.961V70.8714H204.018Z" fill="#1A1714"/>
<path fill-rule="evenodd" clip-rule="evenodd" d="M281.298 32.835H269.223V49.4517C269.223 55.5789 274.286 60.4947 280.41 60.3146L289.751 60.0399V73.2864H301.821L302 32.835H289.751V49.2015L283.847 49.5295C282.463 49.6064 281.298 48.5046 281.298 47.1182V32.835ZM271.638 49.4517V35.25H278.883V47.1182C278.883 49.891 281.213 52.0946 283.981 51.9408L292.166 51.4861V35.25H299.574L299.416 70.8714H292.166V57.5528L280.339 57.9006C275.576 58.0407 271.638 54.2173 271.638 49.4517Z" fill="#1A1714"/>
<path fill-rule="evenodd" clip-rule="evenodd" d="M231.791 32.835H244.47V48.9637L254.046 32.835H265.601V73.2864H252.922V57.1576L243.346 73.2864H231.791V32.835ZM234.206 35.25V70.8714H241.971L255.337 48.3599V70.8714H263.186V35.25H255.421L242.055 57.7614V35.25H234.206Z" fill="#1A1714"/>
<path d="M97.5168 32.835V30.335H95.7681L95.1684 31.9776L97.5168 32.835ZM107.659 32.835L110.007 31.9776L109.407 30.335H107.659V32.835ZM82.7488 73.2864L80.4004 72.429L79.1747 75.7864H82.7488V73.2864ZM96.2129 73.2864V75.7864H98.0148L98.5846 74.0769L96.2129 73.2864ZM98.6279 66.0413V63.5413H96.826L96.2562 65.2508L98.6279 66.0413ZM107.151 66.0413L109.523 65.2508L108.953 63.5413H107.151V66.0413ZM109.566 73.2864L107.194 74.0769L107.764 75.7864H109.566V73.2864ZM122.427 73.2864V75.7864H126.001L124.775 72.429L122.427 73.2864ZM99.206 35.25V32.75H97.4573L96.8576 34.3926L99.206 35.25ZM86.2014 70.8714L83.853 70.014L82.6273 73.3714H86.2014V70.8714ZM105.969 35.25L108.318 34.3926L107.718 32.75H105.969V35.25ZM118.974 70.8714V73.3714H122.548L121.322 70.014L118.974 70.8714ZM111.307 70.8714L108.935 71.6619L109.505 73.3714H111.307V70.8714ZM108.892 63.6263L111.263 62.8358L110.694 61.1263H108.892V63.6263ZM96.8873 63.6263V61.1263H95.0854L94.5156 62.8358L96.8873 63.6263ZM94.4723 70.8714V73.3714H96.2742L96.844 71.6619L94.4723 70.8714ZM123.115 32.835V30.335H120.615V32.835H123.115ZM135.19 32.835H137.69V30.335H135.19V32.835ZM123.115 73.2864H120.615V75.7864H123.115V73.2864ZM135.19 73.2864V75.7864H137.69V73.2864H135.19ZM135.19 58.1926V55.6926H132.69V58.1926H135.19ZM143.643 58.1926H146.143V55.6926H143.643V58.1926ZM143.643 73.2864H141.143V75.7864H143.643V73.2864ZM156.322 73.2864V75.7864H158.822V73.2864H156.322ZM156.322 32.835H158.822V30.335H156.322V32.835ZM143.643 32.835V30.335H141.143V32.835H143.643ZM143.643 47.325V49.825H146.143V47.325H143.643ZM135.19 47.325H132.69V49.825H135.19V47.325ZM125.53 35.25V32.75H123.03V35.25H125.53ZM125.53 70.8714H123.03V73.3714H125.53V70.8714ZM132.775 35.25H135.275V32.75H132.775V35.25ZM132.775 49.74H130.275V52.24H132.775V49.74ZM146.058 49.74V52.24H148.558V49.74H146.058ZM146.058 35.25V32.75H143.558V35.25H146.058ZM153.907 35.25H156.407V32.75H153.907V35.25ZM153.907 70.8714V73.3714H156.407V70.8714H153.907ZM146.058 70.8714H143.558V73.3714H146.058V70.8714ZM146.058 55.7776H148.558V53.2776H146.058V55.7776ZM132.775 55.7776V53.2776H130.275V55.7776H132.775ZM132.775 70.8714V73.3714H135.275V70.8714H132.775ZM167.189 32.835V30.335H164.689V32.835H167.189ZM195.566 32.835H198.066V30.335H195.566V32.835ZM167.189 34.0428L169.689 34.0456V34.0428H167.189ZM167.189 34.0754L169.689 34.0816L169.689 34.0783L167.189 34.0754ZM167.189 34.1762L169.689 34.1845L169.689 34.1824L167.189 34.1762ZM167.187 34.5696L164.687 34.5526V34.5526L167.187 34.5696ZM167.17 36.0432L169.67 36.0806V36.0805L167.17 36.0432ZM167.039 41.0919L169.537 41.1844V41.1844L167.039 41.0919ZM165.994 54.3993L163.519 54.0457L165.994 54.3993ZM164.109 59.5855L166.341 60.7118V60.7118L164.109 59.5855ZM163.018 61.5938L160.858 60.3351L160.858 60.3351L163.018 61.5938ZM162.888 61.8151V64.3151H164.313L165.039 63.0895L162.888 61.8151ZM159.944 61.8151V59.3151H157.444V61.8151H159.944ZM159.944 73.2864H157.444V75.7864H159.944V73.2864ZM199.188 73.2864V75.7864H201.688V73.2864H199.188ZM199.188 61.8151H201.688V59.3151H199.188V61.8151ZM195.566 61.8151H193.066V64.3151H195.566V61.8151ZM169.596 35.25V32.75H167.123L167.096 35.2229L169.596 35.25ZM169.585 36.0793L167.085 36.0419V36.042L169.585 36.0793ZM193.151 35.25H195.651V32.75H193.151V35.25ZM193.151 64.2301H190.651V66.7301H193.151V64.2301ZM196.773 64.2301H199.273V61.7301H196.773V64.2301ZM196.773 70.8714V73.3714H199.273V70.8714H196.773ZM162.359 70.8714H159.859V73.3714H162.359V70.8714ZM162.359 64.2301V61.7301H159.859V64.2301H162.359ZM164.23 64.2301V66.7301H165.603L166.339 65.5717L164.23 64.2301ZM164.586 63.6699L166.696 65.0115L166.7 65.0048L164.586 63.6699ZM164.587 63.6687L162.476 62.3295L162.473 62.3337L164.587 63.6687ZM164.589 63.665L166.7 65.0041L166.703 65.0005L164.589 63.665ZM164.597 63.6523L166.711 64.9878L166.715 64.9801L164.597 63.6523ZM164.626 63.6062L166.744 64.9341L166.75 64.9247L164.626 63.6062ZM164.676 63.5263L166.8 64.8448L166.806 64.8353L164.676 63.5263ZM164.732 63.4353L166.861 64.7443L166.864 64.7398L164.732 63.4353ZM165.105 62.8098L167.265 64.0686L167.265 64.0686L165.105 62.8098ZM166.266 60.6735L168.497 61.7999L168.497 61.7999L166.266 60.6735ZM168.385 54.7408L170.859 55.0944V55.0944L168.385 54.7408ZM169.452 41.1812L166.954 41.0887V41.0887L169.452 41.1812ZM163.567 63.0226L164.907 60.9121L162.225 65.1321L163.567 63.0226ZM201.603 32.835V30.335H199.103V32.835H201.603ZM229.376 32.835H231.876V30.335H229.376V32.835ZM201.603 73.2864H199.103V75.7864H201.603V73.2864ZM229.376 73.2864V75.7864H231.876V73.2864H229.376ZM229.376 61.8151H231.876V59.3151H229.376V61.8151ZM213.678 61.8151H211.178V64.3151H213.678V61.8151ZM213.678 58.1926V55.6926H211.178V58.1926H213.678ZM226.961 58.1926V60.6926H229.461V58.1926H226.961ZM226.961 47.325H229.461V44.825H226.961V47.325ZM213.678 47.325H211.178V49.825H213.678V47.325ZM213.678 44.3063V41.8063H211.178V44.3063H213.678ZM229.376 44.3063V46.8063H231.876V44.3063H229.376ZM204.018 35.25V32.75H201.518V35.25H204.018ZM204.018 70.8714H201.518V73.3714H204.018V70.8714ZM226.961 35.25H229.461V32.75H226.961V35.25ZM226.961 41.8912V44.3912H229.461V41.8912H226.961ZM211.263 41.8912V39.3912H208.763V41.8912H211.263ZM211.263 49.74H208.763V52.24H211.263V49.74ZM224.546 49.74H227.046V47.24H224.546V49.74ZM224.546 55.7776V58.2776H227.046V55.7776H224.546ZM211.263 55.7776V53.2776H208.763V55.7776H211.263ZM211.263 64.2301H208.763V66.7301H211.263V64.2301ZM226.961 64.2301H229.461V61.7301H226.961V64.2301ZM226.961 70.8714V73.3714H229.461V70.8714H226.961ZM269.223 32.835V30.335H266.723V32.835H269.223ZM281.298 32.835H283.798V30.335H281.298V32.835ZM280.41 60.3146L280.337 57.8157L280.41 60.3146ZM289.751 60.0399H292.251V57.4652L289.677 57.5409L289.751 60.0399ZM289.751 73.2864H287.251V75.7864H289.751V73.2864ZM301.821 73.2864V75.7864H304.31L304.321 73.2975L301.821 73.2864ZM302 32.835L304.5 32.846L304.511 30.335H302V32.835ZM289.751 32.835V30.335H287.251V32.835H289.751ZM289.751 49.2015L289.89 51.6976L292.251 51.5665V49.2015H289.751ZM283.847 49.5295L283.709 47.0333L283.847 49.5295ZM271.638 35.25V32.75H269.138V35.25H271.638ZM278.883 35.25H281.383V32.75H278.883V35.25ZM283.981 51.9408L283.843 49.4446L283.981 51.9408ZM292.166 51.4861L292.305 53.9822L294.666 53.851V51.4861H292.166ZM292.166 35.25V32.75H289.666V35.25H292.166ZM299.574 35.25L302.074 35.2611L302.085 32.75H299.574V35.25ZM299.416 70.8714V73.3714H301.905L301.916 70.8824L299.416 70.8714ZM292.166 70.8714H289.666V73.3714H292.166V70.8714ZM292.166 57.5528H294.666V54.9782L292.092 55.0539L292.166 57.5528ZM280.339 57.9006L280.266 55.4017L280.339 57.9006ZM244.47 32.835H246.97V30.335H244.47V32.835ZM231.791 32.835V30.335H229.291V32.835H231.791ZM244.47 48.9637H241.97V58.071L246.619 50.24L244.47 48.9637ZM254.046 32.835V30.335H252.623L251.896 31.5586L254.046 32.835ZM265.601 32.835H268.101V30.335H265.601V32.835ZM265.601 73.2864V75.7864H268.101V73.2864H265.601ZM252.922 73.2864H250.422V75.7864H252.922V73.2864ZM252.922 57.1576H255.422V48.0503L250.772 55.8813L252.922 57.1576ZM243.346 73.2864V75.7864H244.769L245.495 74.5627L243.346 73.2864ZM231.791 73.2864H229.291V75.7864H231.791V73.2864ZM234.206 70.8714H231.706V73.3714H234.206V70.8714ZM234.206 35.25V32.75H231.706V35.25H234.206ZM241.971 70.8714V73.3714H243.394L244.121 72.1477L241.971 70.8714ZM255.337 48.3599H257.837V39.2526L253.187 47.0836L255.337 48.3599ZM255.337 70.8714H252.837V73.3714H255.337V70.8714ZM263.186 70.8714V73.3714H265.686V70.8714H263.186ZM263.186 35.25H265.686V32.75H263.186V35.25ZM255.421 35.25V32.75H253.998L253.271 33.9736L255.421 35.25ZM242.055 57.7614H239.555V66.8687L244.204 59.0377L242.055 57.7614ZM242.055 35.25H244.555V32.75H242.055V35.25ZM185.302 41.8912H187.802V39.3912H185.302V41.8912ZM176.957 41.8912V39.3912H174.682L174.468 41.6571L176.957 41.8912ZM185.302 64.2301V66.7301H187.802V64.2301H185.302ZM172.106 64.2301L169.757 63.375L168.535 66.7301H172.106V64.2301ZM172.708 62.5771L175.057 63.4322L175.059 63.4263L172.708 62.5771ZM172.743 62.4797L175.094 63.3289L175.096 63.3241L172.743 62.4797ZM172.817 62.2724L175.17 63.1168L175.172 63.1123L172.817 62.2724ZM172.875 62.1112L175.229 62.951L175.23 62.9494L172.875 62.1112ZM173.324 60.8259L170.961 60.0122L170.961 60.0122L173.324 60.8259ZM174.484 57.2465L176.881 57.9552V57.9552L174.484 57.2465ZM176.232 48.2207L178.708 48.5633V48.5633L176.232 48.2207ZM176.696 44.4951L174.212 44.2184V44.2184L176.696 44.4951ZM176.815 43.3849L179.302 43.6383L179.302 43.6382L176.815 43.3849ZM176.845 43.0866L179.333 43.33L179.333 43.3277L176.845 43.0866ZM176.852 43.0102L179.341 43.2513L179.341 43.248L176.852 43.0102ZM176.854 42.9868L179.343 43.2246L179.343 43.221L176.854 42.9868ZM179.096 44.7624L176.612 44.4856L176.612 44.4857L179.096 44.7624ZM179.146 44.3063V41.8063H176.902L176.661 44.038L179.146 44.3063ZM178.624 48.5517L176.148 48.2091V48.2091L178.624 48.5517ZM176.8 57.9311L179.197 58.6397V58.6397L176.8 57.9311ZM175.608 61.612L177.971 62.4275L177.972 62.4257L175.608 61.612ZM175.538 61.8151L173.175 60.9995L172.03 64.3151H175.538V61.8151ZM182.887 61.8151V64.3151H185.387V61.8151H182.887ZM182.887 44.3063H185.387V41.8063H182.887V44.3063ZM106.678 57.5889V60.0889H110.147L109.05 56.7983L106.678 57.5889ZM102.588 45.3179L104.959 44.5273L102.588 37.4122L100.216 44.5273L102.588 45.3179ZM98.4973 57.5889L96.1256 56.7983L95.0288 60.0889H98.4973V57.5889ZM103.327 55.1739V57.6739H106.796L105.699 54.3833L103.327 55.1739ZM101.848 55.1739L99.4763 54.3833L98.3794 57.6739H101.848V55.1739ZM102.588 52.9548L104.959 52.1642L102.588 45.0491L100.216 52.1642L102.588 52.9548ZM97.5168 35.335H107.659V30.335H97.5168V35.335ZM85.0972 74.1437L99.8651 33.6923L95.1684 31.9776L80.4004 72.429L85.0972 74.1437ZM96.2129 70.7864H82.7488V75.7864H96.2129V70.7864ZM96.2562 65.2508L93.8412 72.4958L98.5846 74.0769L101 66.8319L96.2562 65.2508ZM107.151 63.5413H98.6279V68.5413H107.151V63.5413ZM111.938 72.4958L109.523 65.2508L104.779 66.8319L107.194 74.0769L111.938 72.4958ZM122.427 70.7864H109.566V75.7864H122.427V70.7864ZM105.31 33.6923L120.078 74.1437L124.775 72.429L110.007 31.9776L105.31 33.6923ZM96.8576 34.3926L83.853 70.014L88.5498 71.7287L101.554 36.1073L96.8576 34.3926ZM105.969 32.75H99.206V37.75H105.969V32.75ZM121.322 70.014L108.318 34.3926L103.621 36.1073L116.626 71.7287L121.322 70.014ZM111.307 73.3714H118.974V68.3714H111.307V73.3714ZM106.52 64.4169L108.935 71.6619L113.678 70.0808L111.263 62.8358L106.52 64.4169ZM96.8873 66.1263H108.892V61.1263H96.8873V66.1263ZM96.844 71.6619L99.259 64.4169L94.5156 62.8358L92.1006 70.0808L96.844 71.6619ZM86.2014 73.3714H94.4723V68.3714H86.2014V73.3714ZM123.115 35.335H135.19V30.335H123.115V35.335ZM125.615 73.2864V32.835H120.615V73.2864H125.615ZM135.19 70.7864H123.115V75.7864H135.19V70.7864ZM132.69 58.1926V73.2864H137.69V58.1926H132.69ZM143.643 55.6926H135.19V60.6926H143.643V55.6926ZM146.143 73.2864V58.1926H141.143V73.2864H146.143ZM156.322 70.7864H143.643V75.7864H156.322V70.7864ZM153.822 32.835V73.2864H158.822V32.835H153.822ZM143.643 35.335H156.322V30.335H143.643V35.335ZM146.143 47.325V32.835H141.143V47.325H146.143ZM135.19 49.825H143.643V44.825H135.19V49.825ZM132.69 32.835V47.325H137.69V32.835H132.69ZM123.03 35.25V70.8714H128.03V35.25H123.03ZM132.775 32.75H125.53V37.75H132.775V32.75ZM135.275 49.74V35.25H130.275V49.74H135.275ZM146.058 47.24H132.775V52.24H146.058V47.24ZM143.558 35.25V49.74H148.558V35.25H143.558ZM153.907 32.75H146.058V37.75H153.907V32.75ZM156.407 70.8714V35.25H151.407V70.8714H156.407ZM146.058 73.3714H153.907V68.3714H146.058V73.3714ZM143.558 55.7776V70.8714H148.558V55.7776H143.558ZM132.775 58.2776H146.058V53.2776H132.775V58.2776ZM135.275 70.8714V55.7776H130.275V70.8714H135.275ZM125.53 73.3714H132.775V68.3714H125.53V73.3714ZM167.189 35.335H195.566V30.335H167.189V35.335ZM169.689 34.0428V32.835H164.689V34.0428H169.689ZM169.689 34.0783L169.689 34.0456L164.689 34.04L164.689 34.0726L169.689 34.0783ZM169.689 34.1824L169.689 34.0816L164.689 34.0693L164.689 34.17L169.689 34.1824ZM169.687 34.5866C169.688 34.4116 169.689 34.2763 169.689 34.1845L164.689 34.1679C164.689 34.2544 164.688 34.3839 164.687 34.5526L169.687 34.5866ZM169.67 36.0805C169.68 35.4447 169.684 34.9365 169.687 34.5866L164.687 34.5526C164.685 34.8902 164.68 35.3848 164.671 36.0059L169.67 36.0805ZM169.537 41.1844C169.613 39.1353 169.651 37.352 169.67 36.0806L164.671 36.0059C164.652 37.2489 164.615 38.9945 164.541 40.9993L169.537 41.1844ZM168.469 54.7528C169.082 50.4581 169.386 45.2721 169.537 41.1844L164.541 40.9993C164.391 45.0391 164.095 50.0157 163.519 54.0457L168.469 54.7528ZM166.341 60.7118C167.193 59.0239 168.183 56.752 168.469 54.7528L163.519 54.0457C163.356 55.1885 162.691 56.8469 161.878 58.4591L166.341 60.7118ZM165.178 62.8526C165.488 62.3212 165.906 61.5747 166.341 60.7118L161.878 58.4591C161.498 59.2119 161.13 59.8683 160.858 60.3351L165.178 62.8526ZM165.039 63.0895C165.082 63.0161 165.129 62.937 165.178 62.8526L160.858 60.3351C160.815 60.4088 160.775 60.4774 160.737 60.5406L165.039 63.0895ZM159.944 64.3151H162.888V59.3151H159.944V64.3151ZM162.444 73.2864V61.8151H157.444V73.2864H162.444ZM199.188 70.7864H159.944V75.7864H199.188V70.7864ZM196.688 61.8151V73.2864H201.688V61.8151H196.688ZM195.566 64.3151H199.188V59.3151H195.566V64.3151ZM193.066 32.835V61.8151H198.066V32.835H193.066ZM167.096 35.2229C167.093 35.464 167.09 35.7381 167.085 36.0419L172.085 36.1167C172.09 35.8055 172.093 35.5245 172.096 35.277L167.096 35.2229ZM193.151 32.75H169.596V37.75H193.151V32.75ZM195.651 64.2301V35.25H190.651V64.2301H195.651ZM196.773 61.7301H193.151V66.7301H196.773V61.7301ZM199.273 70.8714V64.2301H194.273V70.8714H199.273ZM162.359 73.3714H196.773V68.3714H162.359V73.3714ZM159.859 64.2301V70.8714H164.859V64.2301H159.859ZM164.23 61.7301H162.359V66.7301H164.23V61.7301ZM162.477 62.3282L162.12 62.8885L166.339 65.5717L166.696 65.0115L162.477 62.3282ZM162.473 62.3337L162.472 62.3349L166.7 65.0048L166.701 65.0037L162.473 62.3337ZM162.478 62.3258L162.476 62.3295L166.698 65.0078L166.7 65.0041L162.478 62.3258ZM162.484 62.3167L162.476 62.3294L166.703 65.0005L166.711 64.9878L162.484 62.3167ZM162.508 62.2783L162.479 62.3244L166.715 64.9801L166.744 64.9341L162.508 62.2783ZM162.552 62.2078L162.502 62.2877L166.75 64.9247L166.8 64.8448L162.552 62.2078ZM162.602 62.1262L162.546 62.2172L166.806 64.8353L166.861 64.7443L162.602 62.1262ZM162.945 61.551C162.8 61.7997 162.681 61.9969 162.599 62.1308L166.864 64.7398C166.963 64.5788 167.1 64.3509 167.265 64.0686L162.945 61.551ZM164.034 59.5472C163.627 60.3531 163.235 61.0531 162.945 61.5511L167.265 64.0686C167.592 63.506 168.035 62.7159 168.497 61.7999L164.034 59.5472ZM165.91 54.3873C165.687 55.9441 164.865 57.8992 164.034 59.5472L168.497 61.7999C169.369 60.073 170.515 57.506 170.859 55.0944L165.91 54.3873ZM166.954 41.0887C166.804 45.1516 166.504 50.2294 165.91 54.3873L170.859 55.0944C171.491 50.6719 171.798 45.3848 171.951 41.2738L166.954 41.0887ZM167.085 36.042C167.067 37.2987 167.029 39.0625 166.954 41.0887L171.951 41.2738C172.027 39.2033 172.066 37.4018 172.085 36.1166L167.085 36.042ZM162.225 65.1321C162.735 65.4562 162.991 65.6188 163.12 65.7007C163.184 65.7414 163.218 65.7631 163.238 65.7751C163.246 65.7807 163.255 65.7864 163.264 65.7916C163.267 65.7933 163.277 65.7998 163.29 65.8077C163.294 65.81 163.314 65.8222 163.34 65.8371C163.347 65.8414 163.388 65.8648 163.441 65.892C163.456 65.9002 163.538 65.9424 163.646 65.9863C163.682 66.001 163.84 66.066 164.053 66.1124C164.24 66.1458 164.591 66.1698 164.753 66.1643C165.858 65.8222 166.69 65.0197 164.586 63.6699C162.482 62.32 163.314 61.5175 164.419 61.1755C164.581 61.1699 164.932 61.1939 165.119 61.2273C165.332 61.2737 165.49 61.3387 165.526 61.3534C165.634 61.3973 165.716 61.4395 165.731 61.4477C165.784 61.4749 165.825 61.4983 165.832 61.5026C165.858 61.5174 165.878 61.5295 165.882 61.5317C165.894 61.5393 165.904 61.5452 165.904 61.5457C165.909 61.5484 165.91 61.549 165.903 61.5445C165.89 61.5365 165.86 61.5179 165.797 61.4778C165.671 61.398 165.418 61.2369 164.908 60.9131L162.225 65.1321ZM165.926 61.5594L164.907 60.9121L162.227 65.1331L163.246 65.7803L165.926 61.5594ZM201.603 35.335H229.376V30.335H201.603V35.335ZM204.103 73.2864V32.835H199.103V73.2864H204.103ZM229.376 70.7864H201.603V75.7864H229.376V70.7864ZM226.876 61.8151V73.2864H231.876V61.8151H226.876ZM213.678 64.3151H229.376V59.3151H213.678V64.3151ZM211.178 58.1926V61.8151H216.178V58.1926H211.178ZM226.961 55.6926H213.678V60.6926H226.961V55.6926ZM224.461 47.325V58.1926H229.461V47.325H224.461ZM213.678 49.825H226.961V44.825H213.678V49.825ZM211.178 44.3063V47.325H216.178V44.3063H211.178ZM229.376 41.8063H213.678V46.8063H229.376V41.8063ZM226.876 32.835V44.3063H231.876V32.835H226.876ZM201.518 35.25V70.8714H206.518V35.25H201.518ZM226.961 32.75H204.018V37.75H226.961V32.75ZM229.461 41.8912V35.25H224.461V41.8912H229.461ZM211.263 44.3912H226.961V39.3912H211.263V44.3912ZM213.763 49.74V41.8912H208.763V49.74H213.763ZM224.546 47.24H211.263V52.24H224.546V47.24ZM227.046 55.7776V49.74H222.046V55.7776H227.046ZM211.263 58.2776H224.546V53.2776H211.263V58.2776ZM213.763 64.2301V55.7776H208.763V64.2301H213.763ZM226.961 61.7301H211.263V66.7301H226.961V61.7301ZM229.461 70.8714V64.2301H224.461V70.8714H229.461ZM204.018 73.3714H226.961V68.3714H204.018V73.3714ZM269.223 35.335H281.298V30.335H269.223V35.335ZM271.723 49.4517V32.835H266.723V49.4517H271.723ZM280.337 57.8157C275.621 57.9544 271.723 54.1694 271.723 49.4517H266.723C266.723 56.9884 272.951 63.0351 280.484 62.8135L280.337 57.8157ZM289.677 57.5409L280.337 57.8157L280.484 62.8135L289.824 62.5388L289.677 57.5409ZM292.251 73.2864V60.0399H287.251V73.2864H292.251ZM301.821 70.7864H289.751V75.7864H301.821V70.7864ZM299.5 32.8239L299.321 73.2753L304.321 73.2975L304.5 32.846L299.5 32.8239ZM289.751 35.335H302V30.335H289.751V35.335ZM292.251 49.2015V32.835H287.251V49.2015H292.251ZM283.986 52.0256L289.89 51.6976L289.612 46.7053L283.709 47.0333L283.986 52.0256ZM278.798 47.1182C278.798 49.9398 281.169 52.1821 283.986 52.0256L283.709 47.0333C283.715 47.0329 283.729 47.0342 283.744 47.0398C283.757 47.0446 283.766 47.0508 283.772 47.0564C283.778 47.0621 283.784 47.0705 283.79 47.0831C283.796 47.0976 283.798 47.1115 283.798 47.1182H278.798ZM278.798 32.835V47.1182H283.798V32.835H278.798ZM269.138 35.25V49.4517H274.138V35.25H269.138ZM278.883 32.75H271.638V37.75H278.883V32.75ZM281.383 47.1182V35.25H276.383V47.1182H281.383ZM283.843 49.4446C282.507 49.5188 281.383 48.4558 281.383 47.1182H276.383C276.383 51.3262 279.918 54.6703 284.12 54.4369L283.843 49.4446ZM292.027 48.9899L283.843 49.4446L284.12 54.4369L292.305 53.9822L292.027 48.9899ZM289.666 35.25V51.4861H294.666V35.25H289.666ZM299.574 32.75H292.166V37.75H299.574V32.75ZM301.916 70.8824L302.074 35.2611L297.074 35.2389L296.916 70.8603L301.916 70.8824ZM292.166 73.3714H299.416V68.3714H292.166V73.3714ZM289.666 57.5528V70.8714H294.666V57.5528H289.666ZM280.413 60.3995L292.239 60.0517L292.092 55.0539L280.266 55.4017L280.413 60.3995ZM269.138 49.4517C269.138 55.6268 274.24 60.5811 280.413 60.3995L280.266 55.4017C276.911 55.5004 274.138 52.8078 274.138 49.4517H269.138ZM244.47 30.335H231.791V35.335H244.47V30.335ZM246.97 48.9637V32.835H241.97V48.9637H246.97ZM251.896 31.5586L242.32 47.6873L246.619 50.24L256.196 34.1113L251.896 31.5586ZM265.601 30.335H254.046V35.335H265.601V30.335ZM268.101 73.2864V32.835H263.101V73.2864H268.101ZM252.922 75.7864H265.601V70.7864H252.922V75.7864ZM250.422 57.1576V73.2864H255.422V57.1576H250.422ZM245.495 74.5627L255.072 58.434L250.772 55.8813L241.196 72.01L245.495 74.5627ZM231.791 75.7864H243.346V70.7864H231.791V75.7864ZM229.291 32.835V73.2864H234.291V32.835H229.291ZM236.706 70.8714V35.25H231.706V70.8714H236.706ZM241.971 68.3714H234.206V73.3714H241.971V68.3714ZM253.187 47.0836L239.821 69.595L244.121 72.1477L257.487 49.6363L253.187 47.0836ZM257.837 70.8714V48.3599H252.837V70.8714H257.837ZM263.186 68.3714H255.337V73.3714H263.186V68.3714ZM260.686 35.25V70.8714H265.686V35.25H260.686ZM255.421 37.75H263.186V32.75H255.421V37.75ZM244.204 59.0377L257.57 36.5263L253.271 33.9736L239.905 56.485L244.204 59.0377ZM239.555 35.25V57.7614H244.555V35.25H239.555ZM234.206 37.75H242.055V32.75H234.206V37.75ZM185.302 39.3912H176.957V44.3912H185.302V39.3912ZM187.802 64.2301V41.8912H182.802V64.2301H187.802ZM172.106 66.7301H185.302V61.7301H172.106V66.7301ZM170.391 61.6306L170.356 61.7279L175.059 63.4263L175.094 63.3289L170.391 61.6306ZM170.464 61.4281L170.39 61.6354L175.096 63.3241L175.17 63.1168L170.464 61.4281ZM170.52 61.2714L170.462 61.4326L175.172 63.1123L175.229 62.951L170.52 61.2714ZM170.961 60.0122C170.784 60.5249 170.629 60.9635 170.519 61.273L175.23 62.9494C175.345 62.6268 175.505 62.1716 175.688 61.6396L170.961 60.0122ZM172.086 56.5379C171.749 57.6785 171.317 58.9775 170.961 60.0122L175.688 61.6396C176.053 60.5788 176.513 59.1997 176.881 57.9552L172.086 56.5379ZM173.755 47.8781C173.347 50.8292 172.773 54.2145 172.086 56.5379L176.881 57.9552C177.682 55.2451 178.296 51.5399 178.708 48.5633L173.755 47.8781ZM174.212 44.2184C174.108 45.1448 173.955 46.4331 173.755 47.8781L178.708 48.5633C178.915 47.0644 179.074 45.7309 179.181 44.7718L174.212 44.2184ZM174.328 43.1315C174.302 43.3849 174.263 43.7558 174.212 44.2184L179.181 44.7718C179.234 44.292 179.275 43.9055 179.302 43.6383L174.328 43.1315ZM174.357 42.8433C174.35 42.9078 174.341 43.0049 174.328 43.1315L179.302 43.6382C179.316 43.5046 179.326 43.4007 179.333 43.33L174.357 42.8433ZM174.364 42.7692L174.356 42.8456L179.333 43.3277L179.341 43.2513L174.364 42.7692ZM174.366 42.749L174.364 42.7725L179.341 43.248L179.343 43.2246L174.366 42.749ZM174.468 41.6571L174.365 42.7527L179.343 43.221L179.446 42.1254L174.468 41.6571ZM181.581 45.0391C181.6 44.873 181.617 44.7178 181.632 44.5746L176.661 44.038C176.646 44.1759 176.63 44.3254 176.612 44.4856L181.581 45.0391ZM181.1 48.8943C181.311 47.3694 181.473 46.0139 181.581 45.0391L176.612 44.4857C176.507 45.4279 176.351 46.738 176.148 48.2091L181.1 48.8943ZM179.197 58.6397C180.053 55.7431 180.687 51.8836 181.1 48.8943L176.148 48.2091C175.738 51.1723 175.144 54.7122 174.402 57.2225L179.197 58.6397ZM177.972 62.4257C178.341 61.3523 178.814 59.9344 179.197 58.6397L174.402 57.2225C174.05 58.4132 173.605 59.751 173.244 60.7982L177.972 62.4257ZM177.901 62.6306L177.971 62.4275L173.245 60.7964L173.175 60.9995L177.901 62.6306ZM182.887 59.3151H175.538V64.3151H182.887V59.3151ZM180.387 44.3063V61.8151H185.387V44.3063H180.387ZM179.146 46.8063H182.887V41.8063H179.146V46.8063ZM109.05 56.7983L104.959 44.5273L100.216 46.1084L104.306 58.3794L109.05 56.7983ZM98.4973 60.0889H106.678V55.0889H98.4973V60.0889ZM100.216 44.5273L96.1256 56.7983L100.869 58.3794L104.959 46.1084L100.216 44.5273ZM103.327 52.6739H101.848V57.6739H103.327V52.6739ZM100.216 53.7454L100.956 55.9644L105.699 54.3833L104.959 52.1642L100.216 53.7454ZM104.22 55.9644L104.959 53.7454L100.216 52.1642L99.4763 54.3833L104.22 55.9644ZM170.358 61.722L169.757 63.375L174.455 65.0852L175.057 63.4322L170.358 61.722Z" fill="white" mask="url(#path-7-outside-1_51_436)"/>
<path fill-rule="evenodd" clip-rule="evenodd" d="M0 6.62941L42.0047 0.481032L42.7855 13.276L49.8497 0L86.6702 5.66176L57.1389 50.6169L91.1721 84.1136L48.1035 107.568L43.9383 95.3747L43.589 104.175L9.57427 102.783L0 6.62941ZM42.0387 82.3427L49.4632 104.078L87.157 83.5502L54.0322 50.9476L82.588 7.47745L51.1766 2.64743L40.8965 21.9675L39.7542 3.25118L2.63163 8.68495L11.7695 100.455L41.2718 101.663L42.0387 82.3427Z" fill="white"/>
<path d="M7.46171 13.5628L35.4402 9.30858L38.2952 32.4031L53.1409 6.26983L76.5516 10.5241L49.715 50.6356L81.1195 82.8464L54.2829 98.0402L38.2952 67.0449V97.4324L16.5976 96.2169L7.46171 13.5628Z" fill="white"/>
</svg>
