<svg width="249" height="100" viewBox="0 0 249 100" fill="none" xmlns="http://www.w3.org/2000/svg">
<g clip-path="url(#clip0_162_222)">
<path d="M192 64.5V35H198.5V53.5L209.5 35H216V64.5H209.5V46L198.5 64.5H192Z" fill="#45C1F2"/>
<path d="M167 64.5V35H186V40.5H173V47H184V52H173V59H186V64.5H167Z" fill="#45C1F2"/>
<path d="M102 64.5V35H107.918L108 47H119V35H125.5V64.5H119V52H108V64.5H102Z" fill="#45C1F2"/>
<path fill-rule="evenodd" clip-rule="evenodd" d="M131.5 58.5V65.5H161.5V58H158V34.5L138.5 35L137 52.5L134.5 58L131.5 58.5ZM149 44H144V56H149V44Z" fill="#45C1F2"/>
<path d="M77 64.5H68.5L80 34.5H86L97.5 65H90L87.5 58.5H79L77 64.5Z" fill="#45C1F2"/>
<path d="M223.5 52L223 35H229.5V41.5L230.5 47.5L239 48V34.5L246.5 34V65L239.5 65.5L239 54L229 54.5L223.5 52Z" fill="#45C1F2"/>
<mask id="path-7-outside-1_162_222" maskUnits="userSpaceOnUse" x="63.5703" y="31" width="187" height="37" fill="black">
<rect fill="white" x="63.5703" y="31" width="187" height="37"/>
<path fill-rule="evenodd" clip-rule="evenodd" d="M87.1994 33H78.8005L66.5703 66.5H77.7207L79.7207 60.5H86.7792L88.7792 66.5H99.4296L87.1994 33ZM69.4296 64.5L80.1994 35H85.8005L96.5703 64.5H90.2207L88.2207 58.5H78.2792L76.2792 64.5H69.4296ZM110 33H100V66.5H110V54H117V66.5H127.5V33H117V45H110V33ZM102 64.5V35H108V47H119V35H125.5V64.5H119V52H108V64.5H102ZM160 33H136.5V34.0003L136.5 34.0273L136.5 34.1108C136.5 34.1846 136.499 34.2942 136.498 34.4366C136.496 34.7212 136.492 35.1365 136.484 35.657C136.469 36.6981 136.438 38.1593 136.376 39.838C136.251 43.2034 136.002 47.4115 135.51 50.8586C135.324 52.1596 134.639 53.7871 133.95 55.1536C133.612 55.8225 133.286 56.4035 133.046 56.8168C133.007 56.8822 132.971 56.9434 132.938 57H130.5V66.5H163V57H160V33ZM138.484 35.6868C138.488 35.4322 138.491 35.2023 138.493 35H158V59H161V64.5H132.5V59H134.049L134.344 58.536L134.345 58.5351L134.347 58.532L134.353 58.5215L134.377 58.4833L134.418 58.4171L134.465 58.3418C134.539 58.2197 134.645 58.0437 134.774 57.8238C135.03 57.3846 135.375 56.7676 135.735 56.0546C136.44 54.6572 137.255 52.7847 137.49 51.1414C137.998 47.5885 138.249 43.2966 138.374 39.912C138.437 38.2157 138.469 36.7394 138.484 35.6868ZM133.5 58C134.344 58.5366 134.344 58.5362 134.344 58.536L133.5 58ZM188 33H165V66.5H188V57H175V54H186V45H175V42.5H188V33ZM167 64.5V35H186V40.5H173V47H184V52H173V59H186V64.5H167ZM231 33H221V46.7612C221 51.8355 225.193 55.9065 230.265 55.7574L238 55.5298V66.5H247.996L248.144 33H238V46.554L233.111 46.8256C231.965 46.8893 231 45.9769 231 44.8287V33ZM223 46.7612V35H229V44.8287C229 47.125 230.929 48.9499 233.222 48.8225L240 48.446V35H246.135L246.004 64.5H240V53.4702L230.206 53.7582C226.261 53.8742 223 50.7079 223 46.7612ZM190 33H200.5V46.3571L208.431 33H218V66.5H207.5V53.1429L199.569 66.5H190V33ZM192 35V64.5H198.431L209.5 45.8571V64.5H216V35H209.569L198.5 53.6429V35H192ZM144.59 40.5H151.5V59H140.572L141.06 57.658L141.07 57.6311L141.099 57.5504L141.161 57.3788L141.208 57.2452C141.302 56.9835 141.432 56.6134 141.581 56.1808C141.88 55.3131 142.249 54.2041 142.541 53.2165C143.157 51.1323 143.649 48.1963 143.989 45.7418C144.157 44.5228 144.286 43.4371 144.373 42.6564C144.417 42.2662 144.45 41.9525 144.472 41.737C144.483 41.6292 144.491 41.546 144.496 41.4899L144.502 41.4267L144.504 41.4073L144.59 40.5ZM146.402 42.5C146.39 42.6164 146.376 42.7426 146.361 42.8777C146.273 43.6715 146.141 44.7753 145.97 46.0159C145.629 48.4807 145.121 51.5446 144.459 53.7835C144.155 54.8126 143.774 55.9537 143.472 56.8318L143.414 57H149.5V42.5H146.402ZM83 43.3378L86.3874 53.5H79.6125L83 43.3378ZM82.3874 51.5H83.6125L83 49.6623L82.3874 51.5Z"/>
</mask>
<path fill-rule="evenodd" clip-rule="evenodd" d="M87.1994 33H78.8005L66.5703 66.5H77.7207L79.7207 60.5H86.7792L88.7792 66.5H99.4296L87.1994 33ZM69.4296 64.5L80.1994 35H85.8005L96.5703 64.5H90.2207L88.2207 58.5H78.2792L76.2792 64.5H69.4296ZM110 33H100V66.5H110V54H117V66.5H127.5V33H117V45H110V33ZM102 64.5V35H108V47H119V35H125.5V64.5H119V52H108V64.5H102ZM160 33H136.5V34.0003L136.5 34.0273L136.5 34.1108C136.5 34.1846 136.499 34.2942 136.498 34.4366C136.496 34.7212 136.492 35.1365 136.484 35.657C136.469 36.6981 136.438 38.1593 136.376 39.838C136.251 43.2034 136.002 47.4115 135.51 50.8586C135.324 52.1596 134.639 53.7871 133.95 55.1536C133.612 55.8225 133.286 56.4035 133.046 56.8168C133.007 56.8822 132.971 56.9434 132.938 57H130.5V66.5H163V57H160V33ZM138.484 35.6868C138.488 35.4322 138.491 35.2023 138.493 35H158V59H161V64.5H132.5V59H134.049L134.344 58.536L134.345 58.5351L134.347 58.532L134.353 58.5215L134.377 58.4833L134.418 58.4171L134.465 58.3418C134.539 58.2197 134.645 58.0437 134.774 57.8238C135.03 57.3846 135.375 56.7676 135.735 56.0546C136.44 54.6572 137.255 52.7847 137.49 51.1414C137.998 47.5885 138.249 43.2966 138.374 39.912C138.437 38.2157 138.469 36.7394 138.484 35.6868ZM133.5 58C134.344 58.5366 134.344 58.5362 134.344 58.536L133.5 58ZM188 33H165V66.5H188V57H175V54H186V45H175V42.5H188V33ZM167 64.5V35H186V40.5H173V47H184V52H173V59H186V64.5H167ZM231 33H221V46.7612C221 51.8355 225.193 55.9065 230.265 55.7574L238 55.5298V66.5H247.996L248.144 33H238V46.554L233.111 46.8256C231.965 46.8893 231 45.9769 231 44.8287V33ZM223 46.7612V35H229V44.8287C229 47.125 230.929 48.9499 233.222 48.8225L240 48.446V35H246.135L246.004 64.5H240V53.4702L230.206 53.7582C226.261 53.8742 223 50.7079 223 46.7612ZM190 33H200.5V46.3571L208.431 33H218V66.5H207.5V53.1429L199.569 66.5H190V33ZM192 35V64.5H198.431L209.5 45.8571V64.5H216V35H209.569L198.5 53.6429V35H192ZM144.59 40.5H151.5V59H140.572L141.06 57.658L141.07 57.6311L141.099 57.5504L141.161 57.3788L141.208 57.2452C141.302 56.9835 141.432 56.6134 141.581 56.1808C141.88 55.3131 142.249 54.2041 142.541 53.2165C143.157 51.1323 143.649 48.1963 143.989 45.7418C144.157 44.5228 144.286 43.4371 144.373 42.6564C144.417 42.2662 144.45 41.9525 144.472 41.737C144.483 41.6292 144.491 41.546 144.496 41.4899L144.502 41.4267L144.504 41.4073L144.59 40.5ZM146.402 42.5C146.39 42.6164 146.376 42.7426 146.361 42.8777C146.273 43.6715 146.141 44.7753 145.97 46.0159C145.629 48.4807 145.121 51.5446 144.459 53.7835C144.155 54.8126 143.774 55.9537 143.472 56.8318L143.414 57H149.5V42.5H146.402ZM83 43.3378L86.3874 53.5H79.6125L83 43.3378ZM82.3874 51.5H83.6125L83 49.6623L82.3874 51.5Z" fill="#1A1714"/>
<path d="M78.8005 33V31.5H77.7513L77.3914 32.4856L78.8005 33ZM87.1994 33L88.6085 32.4856L88.2486 31.5H87.1994V33ZM66.5703 66.5L65.1613 65.9856L64.4259 68H66.5703V66.5ZM77.7207 66.5V68H78.8018L79.1437 66.9743L77.7207 66.5ZM79.7207 60.5V59H78.6396L78.2977 60.0257L79.7207 60.5ZM86.7792 60.5L88.2022 60.0257L87.8603 59H86.7792V60.5ZM88.7792 66.5L87.3562 66.9743L87.6981 68H88.7792V66.5ZM99.4296 66.5V68H101.574L100.839 65.9856L99.4296 66.5ZM80.1994 35V33.5H79.1502L78.7904 34.4856L80.1994 35ZM69.4296 64.5L68.0206 63.9856L67.2851 66H69.4296V64.5ZM85.8005 35L87.2095 34.4856L86.8497 33.5H85.8005V35ZM96.5703 64.5V66H98.7148L97.9793 63.9856L96.5703 64.5ZM90.2207 64.5L88.7977 64.9743L89.1396 66H90.2207V64.5ZM88.2207 58.5L89.6437 58.0257L89.3018 57H88.2207V58.5ZM78.2792 58.5V57H77.1981L76.8562 58.0257L78.2792 58.5ZM76.2792 64.5V66H77.3603L77.7022 64.9743L76.2792 64.5ZM100 33V31.5H98.5V33H100ZM110 33H111.5V31.5H110V33ZM100 66.5H98.5V68H100V66.5ZM110 66.5V68H111.5V66.5H110ZM110 54V52.5H108.5V54H110ZM117 54H118.5V52.5H117V54ZM117 66.5H115.5V68H117V66.5ZM127.5 66.5V68H129V66.5H127.5ZM127.5 33H129V31.5H127.5V33ZM117 33V31.5H115.5V33H117ZM117 45V46.5H118.5V45H117ZM110 45H108.5V46.5H110V45ZM102 35V33.5H100.5V35H102ZM102 64.5H100.5V66H102V64.5ZM108 35H109.5V33.5H108V35ZM108 47H106.5V48.5H108V47ZM119 47V48.5H120.5V47H119ZM119 35V33.5H117.5V35H119ZM125.5 35H127V33.5H125.5V35ZM125.5 64.5V66H127V64.5H125.5ZM119 64.5H117.5V66H119V64.5ZM119 52H120.5V50.5H119V52ZM108 52V50.5H106.5V52H108ZM108 64.5V66H109.5V64.5H108ZM136.5 33V31.5H135V33H136.5ZM160 33H161.5V31.5H160V33ZM136.5 34.0003L138 34.002V34.0003H136.5ZM136.5 34.0273L138 34.031V34.029L136.5 34.0273ZM136.5 34.1108L138 34.1157V34.1145L136.5 34.1108ZM136.498 34.4366L134.998 34.4263V34.4263L136.498 34.4366ZM136.484 35.657L137.984 35.6793V35.6793L136.484 35.657ZM136.376 39.838L137.875 39.8935V39.8935L136.376 39.838ZM135.51 50.8586L134.025 50.6464L135.51 50.8586ZM133.95 55.1536L135.289 55.8294V55.8294L133.95 55.1536ZM133.046 56.8168L131.75 56.0615L131.75 56.0615L133.046 56.8168ZM132.938 57V58.5H133.793L134.228 57.7647L132.938 57ZM130.5 57V55.5H129V57H130.5ZM130.5 66.5H129V68H130.5V66.5ZM163 66.5V68H164.5V66.5H163ZM163 57H164.5V55.5H163V57ZM160 57H158.5V58.5H160V57ZM138.493 35V33.5H137.009L136.993 34.9838L138.493 35ZM138.484 35.6868L136.984 35.6644V35.6644L138.484 35.6868ZM158 35H159.5V33.5H158V35ZM158 59H156.5V60.5H158V59ZM161 59H162.5V57.5H161V59ZM161 64.5V66H162.5V64.5H161ZM132.5 64.5H131V66H132.5V64.5ZM132.5 59V57.5H131V59H132.5ZM134.049 59V60.5H134.873L135.315 59.805L134.049 59ZM134.345 58.5351L133.078 57.7316L133.077 57.7341L134.345 58.5351ZM134.347 58.532L135.613 59.3355L135.615 59.3333L134.347 58.532ZM134.353 58.5215L135.621 59.3228L135.624 59.3182L134.353 58.5215ZM134.377 58.4833L135.648 59.28L135.652 59.2744L134.377 58.4833ZM134.418 58.4171L135.693 59.2082L135.696 59.2026L134.418 58.4171ZM134.465 58.3418L135.743 59.1272L135.744 59.1245L134.465 58.3418ZM134.774 57.8238L136.07 58.5791L136.07 58.579L134.774 57.8238ZM135.735 56.0546L137.074 56.7304V56.7304L135.735 56.0546ZM137.49 51.1414L138.975 51.3536V51.3536L137.49 51.1414ZM138.374 39.912L136.875 39.8565V39.8565L138.374 39.912ZM133.5 58L134.304 56.7337L132.695 59.2657L133.5 58ZM165 33V31.5H163.5V33H165ZM188 33H189.5V31.5H188V33ZM165 66.5H163.5V68H165V66.5ZM188 66.5V68H189.5V66.5H188ZM188 57H189.5V55.5H188V57ZM175 57H173.5V58.5H175V57ZM175 54V52.5H173.5V54H175ZM186 54V55.5H187.5V54H186ZM186 45H187.5V43.5H186V45ZM175 45H173.5V46.5H175V45ZM175 42.5V41H173.5V42.5H175ZM188 42.5V44H189.5V42.5H188ZM167 35V33.5H165.5V35H167ZM167 64.5H165.5V66H167V64.5ZM186 35H187.5V33.5H186V35ZM186 40.5V42H187.5V40.5H186ZM173 40.5V39H171.5V40.5H173ZM173 47H171.5V48.5H173V47ZM184 47H185.5V45.5H184V47ZM184 52V53.5H185.5V52H184ZM173 52V50.5H171.5V52H173ZM173 59H171.5V60.5H173V59ZM186 59H187.5V57.5H186V59ZM186 64.5V66H187.5V64.5H186ZM221 33V31.5H219.5V33H221ZM231 33H232.5V31.5H231V33ZM230.265 55.7574L230.22 54.258L230.265 55.7574ZM238 55.5298H239.5V53.9851L237.956 54.0305L238 55.5298ZM238 66.5H236.5V68H238V66.5ZM247.996 66.5V68H249.489L249.496 66.5067L247.996 66.5ZM248.144 33L249.644 33.0067L249.651 31.5H248.144V33ZM238 33V31.5H236.5V33H238ZM238 46.554L238.083 48.0517L239.5 47.973V46.554H238ZM233.111 46.8256L233.028 45.3279L233.111 46.8256ZM223 35V33.5H221.5V35H223ZM229 35H230.5V33.5H229V35ZM233.222 48.8225L233.139 47.3249L233.222 48.8225ZM240 48.446L240.083 49.9437L241.5 49.865V48.446H240ZM240 35V33.5H238.5V35H240ZM246.135 35L247.635 35.0067L247.642 33.5H246.135V35ZM246.004 64.5V66H247.498L247.504 64.5067L246.004 64.5ZM240 64.5H238.5V66H240V64.5ZM240 53.4702H241.5V51.9254L239.956 51.9708L240 53.4702ZM230.206 53.7582L230.162 52.2589L230.206 53.7582ZM200.5 33H202V31.5H200.5V33ZM190 33V31.5H188.5V33H190ZM200.5 46.3571H199V51.8215L201.79 47.1229L200.5 46.3571ZM208.431 33V31.5H207.577L207.141 32.2342L208.431 33ZM218 33H219.5V31.5H218V33ZM218 66.5V68H219.5V66.5H218ZM207.5 66.5H206V68H207.5V66.5ZM207.5 53.1429H209V47.6785L206.21 52.3771L207.5 53.1429ZM199.569 66.5V68H200.423L200.859 67.2658L199.569 66.5ZM190 66.5H188.5V68H190V66.5ZM192 64.5H190.5V66H192V64.5ZM192 35V33.5H190.5V35H192ZM198.431 64.5V66H199.285L199.721 65.2658L198.431 64.5ZM209.5 45.8571H211V40.3927L208.21 45.0913L209.5 45.8571ZM209.5 64.5H208V66H209.5V64.5ZM216 64.5V66H217.5V64.5H216ZM216 35H217.5V33.5H216V35ZM209.569 35V33.5H208.715L208.279 34.2342L209.569 35ZM198.5 53.6429H197V59.1073L199.79 54.4087L198.5 53.6429ZM198.5 35H200V33.5H198.5V35ZM151.5 40.5H153V39H151.5V40.5ZM144.59 40.5V39H143.224L143.096 40.3595L144.59 40.5ZM151.5 59V60.5H153V59H151.5ZM140.572 59L139.162 58.4869L138.429 60.5H140.572V59ZM141.06 57.658L142.47 58.171L142.47 58.1698L141.06 57.658ZM141.07 57.6311L142.48 58.143L142.481 58.1406L141.07 57.6311ZM141.099 57.5504L142.51 58.0599L142.511 58.057L141.099 57.5504ZM141.161 57.3788L142.573 57.8854L142.574 57.8827L141.161 57.3788ZM141.208 57.2452L142.621 57.7491L142.622 57.7481L141.208 57.2452ZM141.581 56.1808L140.163 55.6926V55.6926L141.581 56.1808ZM142.541 53.2165L143.979 53.6417L142.541 53.2165ZM143.989 45.7418L145.474 45.9474L143.989 45.7418ZM144.373 42.6564L142.883 42.4904V42.4904L144.373 42.6564ZM144.472 41.737L145.964 41.889L145.964 41.889L144.472 41.737ZM144.496 41.4899L145.989 41.636L145.989 41.6346L144.496 41.4899ZM144.502 41.4267L145.995 41.5713L145.996 41.5694L144.502 41.4267ZM144.504 41.4073L145.997 41.55L145.998 41.5478L144.504 41.4073ZM146.361 42.8777L144.87 42.7117V42.7117L146.361 42.8777ZM146.402 42.5V41H145.056L144.911 42.339L146.402 42.5ZM145.97 46.0159L144.484 45.8103V45.8103L145.97 46.0159ZM144.459 53.7835L145.897 54.2086L144.459 53.7835ZM143.472 56.8318L144.89 57.3211L144.89 57.32L143.472 56.8318ZM143.414 57L141.996 56.5107L141.309 58.5H143.414V57ZM149.5 57V58.5H151V57H149.5ZM149.5 42.5H151V41H149.5V42.5ZM86.3874 53.5V55H88.4685L87.8104 53.0257L86.3874 53.5ZM83 43.3378L84.423 42.8634L83 38.5944L81.577 42.8634L83 43.3378ZM79.6125 53.5L78.1895 53.0257L77.5314 55H79.6125V53.5ZM83.6125 51.5V53H85.6937L85.0356 51.0257L83.6125 51.5ZM82.3874 51.5L80.9644 51.0257L80.3063 53H82.3874V51.5ZM83 49.6623L84.423 49.188L83 44.9189L81.577 49.188L83 49.6623ZM78.8005 34.5H87.1994V31.5H78.8005V34.5ZM67.9793 67.0144L80.2095 33.5144L77.3914 32.4856L65.1613 65.9856L67.9793 67.0144ZM77.7207 65H66.5703V68H77.7207V65ZM78.2977 60.0257L76.2977 66.0257L79.1437 66.9743L81.1437 60.9743L78.2977 60.0257ZM86.7792 59H79.7207V62H86.7792V59ZM90.2022 66.0257L88.2022 60.0257L85.3562 60.9743L87.3562 66.9743L90.2022 66.0257ZM99.4296 65H88.7792V68H99.4296V65ZM85.7904 33.5144L98.0206 67.0144L100.839 65.9856L88.6085 32.4856L85.7904 33.5144ZM78.7904 34.4856L68.0206 63.9856L70.8386 65.0144L81.6085 35.5144L78.7904 34.4856ZM85.8005 33.5H80.1994V36.5H85.8005V33.5ZM97.9793 63.9856L87.2095 34.4856L84.3914 35.5144L95.1613 65.0144L97.9793 63.9856ZM90.2207 66H96.5703V63H90.2207V66ZM86.7977 58.9743L88.7977 64.9743L91.6437 64.0257L89.6437 58.0257L86.7977 58.9743ZM78.2792 60H88.2207V57H78.2792V60ZM77.7022 64.9743L79.7022 58.9743L76.8562 58.0257L74.8562 64.0257L77.7022 64.9743ZM69.4296 66H76.2792V63H69.4296V66ZM100 34.5H110V31.5H100V34.5ZM101.5 66.5V33H98.5V66.5H101.5ZM110 65H100V68H110V65ZM108.5 54V66.5H111.5V54H108.5ZM117 52.5H110V55.5H117V52.5ZM118.5 66.5V54H115.5V66.5H118.5ZM127.5 65H117V68H127.5V65ZM126 33V66.5H129V33H126ZM117 34.5H127.5V31.5H117V34.5ZM118.5 45V33H115.5V45H118.5ZM110 46.5H117V43.5H110V46.5ZM108.5 33V45H111.5V33H108.5ZM100.5 35V64.5H103.5V35H100.5ZM108 33.5H102V36.5H108V33.5ZM109.5 47V35H106.5V47H109.5ZM119 45.5H108V48.5H119V45.5ZM117.5 35V47H120.5V35H117.5ZM125.5 33.5H119V36.5H125.5V33.5ZM127 64.5V35H124V64.5H127ZM119 66H125.5V63H119V66ZM117.5 52V64.5H120.5V52H117.5ZM108 53.5H119V50.5H108V53.5ZM109.5 64.5V52H106.5V64.5H109.5ZM102 66H108V63H102V66ZM136.5 34.5H160V31.5H136.5V34.5ZM138 34.0003V33H135V34.0003H138ZM138 34.029L138 34.002L135 33.9986L135 34.0256L138 34.029ZM138 34.1145L138 34.031L135 34.0236L135 34.1071L138 34.1145ZM137.998 34.4468C137.999 34.3026 138 34.1912 138 34.1157L135 34.1058C135 34.178 134.999 34.2859 134.998 34.4263L137.998 34.4468ZM137.984 35.6793C137.992 35.1544 137.996 34.7351 137.998 34.4468L134.998 34.4263C134.996 34.7073 134.992 35.1185 134.985 35.6346L137.984 35.6793ZM137.875 39.8935C137.937 38.2016 137.969 36.7291 137.984 35.6793L134.985 35.6346C134.969 36.6672 134.938 38.1171 134.877 39.7825L137.875 39.8935ZM136.995 51.0707C137.499 47.5442 137.749 43.2733 137.875 39.8935L134.877 39.7825C134.753 43.1335 134.506 47.2788 134.025 50.6464L136.995 51.0707ZM135.289 55.8294C135.99 54.4402 136.772 52.6287 136.995 51.0707L134.025 50.6464C133.876 51.6905 133.289 53.134 132.61 54.4778L135.289 55.8294ZM134.342 57.572C134.594 57.1394 134.934 56.5314 135.289 55.8294L132.61 54.4778C132.289 55.1137 131.979 55.6676 131.75 56.0615L134.342 57.572ZM134.228 57.7647C134.264 57.705 134.302 57.6407 134.342 57.572L131.75 56.0615C131.713 56.1238 131.679 56.1818 131.647 56.2353L134.228 57.7647ZM130.5 58.5H132.938V55.5H130.5V58.5ZM132 66.5V57H129V66.5H132ZM163 65H130.5V68H163V65ZM161.5 57V66.5H164.5V57H161.5ZM160 58.5H163V55.5H160V58.5ZM158.5 33V57H161.5V33H158.5ZM136.993 34.9838C136.991 35.1841 136.988 35.412 136.984 35.6644L139.984 35.7092C139.988 35.4524 139.991 35.2204 139.993 35.0162L136.993 34.9838ZM158 33.5H138.493V36.5H158V33.5ZM159.5 59V35H156.5V59H159.5ZM161 57.5H158V60.5H161V57.5ZM162.5 64.5V59H159.5V64.5H162.5ZM132.5 66H161V63H132.5V66ZM131 59V64.5H134V59H131ZM134.049 57.5H132.5V60.5H134.049V57.5ZM133.078 57.7311L132.783 58.195L135.315 59.805L135.61 59.341L133.078 57.7311ZM133.077 57.7341L133.076 57.7351L135.612 59.337L135.613 59.3361L133.077 57.7341ZM133.08 57.7285L133.078 57.7316L135.611 59.3385L135.613 59.3355L133.08 57.7285ZM133.085 57.7201L133.079 57.7307L135.615 59.3333L135.621 59.3228L133.085 57.7201ZM133.106 57.6866L133.082 57.7248L135.624 59.3182L135.648 59.28L133.106 57.6866ZM133.144 57.626L133.103 57.6922L135.652 59.2744L135.693 59.2082L133.144 57.626ZM133.187 57.5564L133.14 57.6317L135.696 59.2026L135.743 59.1272L133.187 57.5564ZM133.478 57.0685C133.355 57.2783 133.255 57.4451 133.185 57.5591L135.744 59.1245C135.824 58.9943 135.936 58.809 136.07 58.5791L133.478 57.0685ZM134.396 55.3788C134.053 56.0588 133.722 56.6488 133.478 57.0685L136.07 58.579C136.337 58.1205 136.698 57.4765 137.074 56.7304L134.396 55.3788ZM136.005 50.9293C135.807 52.3161 135.089 54.0051 134.396 55.3788L137.074 56.7304C137.791 55.3093 138.703 53.2532 138.975 51.3536L136.005 50.9293ZM136.875 39.8565C136.751 43.2267 136.501 47.4557 136.005 50.9293L138.975 51.3536C139.494 47.7213 139.747 43.3666 139.873 39.9675L136.875 39.8565ZM136.984 35.6644C136.969 36.7084 136.938 38.1734 136.875 39.8565L139.873 39.9675C139.937 38.2579 139.968 36.7703 139.984 35.7092L136.984 35.6644ZM132.695 59.2657C133.117 59.5341 133.329 59.6685 133.435 59.7361C133.488 59.7695 133.516 59.7875 133.532 59.7974C133.538 59.8013 133.548 59.8074 133.558 59.8133C133.56 59.815 133.565 59.8181 133.571 59.8217C133.576 59.8244 133.59 59.8326 133.607 59.8425C133.616 59.8474 133.633 59.857 133.655 59.8684C133.671 59.8764 133.721 59.9026 133.789 59.9297C133.791 59.9302 134.065 60.0538 134.427 60.0337C134.676 60.0199 134.989 59.9385 135.274 59.713C135.402 59.612 135.49 59.5088 135.545 59.4345C135.566 59.4064 135.595 59.3632 135.605 59.3485C135.615 59.3335 135.624 59.3183 135.624 59.3182L133.064 57.7539C133.064 57.7537 133.074 57.7385 133.083 57.7236C133.093 57.7088 133.123 57.6657 133.143 57.6376C133.199 57.5633 133.286 57.4601 133.414 57.3591C133.7 57.1336 134.012 57.0522 134.261 57.0384C134.475 57.0265 134.641 57.0638 134.715 57.0827C134.8 57.1042 134.865 57.1287 134.899 57.1424C134.967 57.1695 135.018 57.1957 135.033 57.2037C135.055 57.215 135.072 57.2245 135.081 57.2294C135.098 57.2392 135.112 57.2472 135.115 57.2495C135.121 57.2529 135.125 57.2556 135.127 57.2569C135.134 57.2606 135.137 57.2626 135.13 57.2582C135.119 57.2515 135.095 57.2361 135.042 57.2026C134.937 57.1362 134.727 57.0026 134.305 56.7343L132.695 59.2657ZM135.148 57.2698L134.304 56.7337L132.696 59.2663L133.54 59.8023L135.148 57.2698ZM165 34.5H188V31.5H165V34.5ZM166.5 66.5V33H163.5V66.5H166.5ZM188 65H165V68H188V65ZM186.5 57V66.5H189.5V57H186.5ZM175 58.5H188V55.5H175V58.5ZM173.5 54V57H176.5V54H173.5ZM186 52.5H175V55.5H186V52.5ZM184.5 45V54H187.5V45H184.5ZM175 46.5H186V43.5H175V46.5ZM173.5 42.5V45H176.5V42.5H173.5ZM188 41H175V44H188V41ZM186.5 33V42.5H189.5V33H186.5ZM165.5 35V64.5H168.5V35H165.5ZM186 33.5H167V36.5H186V33.5ZM187.5 40.5V35H184.5V40.5H187.5ZM173 42H186V39H173V42ZM174.5 47V40.5H171.5V47H174.5ZM184 45.5H173V48.5H184V45.5ZM185.5 52V47H182.5V52H185.5ZM173 53.5H184V50.5H173V53.5ZM174.5 59V52H171.5V59H174.5ZM186 57.5H173V60.5H186V57.5ZM187.5 64.5V59H184.5V64.5H187.5ZM167 66H186V63H167V66ZM221 34.5H231V31.5H221V34.5ZM222.5 46.7612V33H219.5V46.7612H222.5ZM230.22 54.258C225.994 54.3823 222.5 50.9898 222.5 46.7612H219.5C219.5 52.6812 224.391 57.4307 230.309 57.2567L230.22 54.258ZM237.956 54.0305L230.22 54.258L230.309 57.2567L238.044 57.0292L237.956 54.0305ZM239.5 66.5V55.5298H236.5V66.5H239.5ZM247.996 65H238V68H247.996V65ZM246.644 32.9933L246.496 66.4933L249.496 66.5067L249.644 33.0067L246.644 32.9933ZM238 34.5H248.144V31.5H238V34.5ZM239.5 46.554V33H236.5V46.554H239.5ZM233.194 48.3233L238.083 48.0517L237.917 45.0563L233.028 45.3279L233.194 48.3233ZM229.5 44.8287C229.5 46.838 231.188 48.4348 233.194 48.3233L233.028 45.3279C232.741 45.3439 232.5 45.1158 232.5 44.8287H229.5ZM229.5 33V44.8287H232.5V33H229.5ZM221.5 35V46.7612H224.5V35H221.5ZM229 33.5H223V36.5H229V33.5ZM230.5 44.8287V35H227.5V44.8287H230.5ZM233.139 47.3249C231.706 47.4045 230.5 46.2639 230.5 44.8287H227.5C227.5 47.9862 230.152 50.4954 233.305 50.3202L233.139 47.3249ZM239.917 46.9483L233.139 47.3249L233.305 50.3202L240.083 49.9437L239.917 46.9483ZM238.5 35V48.446H241.5V35H238.5ZM246.135 33.5H240V36.5H246.135V33.5ZM247.504 64.5067L247.635 35.0067L244.635 34.9933L244.504 64.4933L247.504 64.5067ZM240 66H246.004V63H240V66ZM238.5 53.4702V64.5H241.5V53.4702H238.5ZM230.25 55.2576L240.044 54.9695L239.956 51.9708L230.162 52.2589L230.25 55.2576ZM221.5 46.7612C221.5 51.5536 225.46 55.3985 230.25 55.2576L230.162 52.2589C227.062 52.35 224.5 49.8622 224.5 46.7612H221.5ZM200.5 31.5H190V34.5H200.5V31.5ZM202 46.3571V33H199V46.3571H202ZM207.141 32.2342L199.21 45.5913L201.79 47.1229L209.721 33.7658L207.141 32.2342ZM218 31.5H208.431V34.5H218V31.5ZM219.5 66.5V33H216.5V66.5H219.5ZM207.5 68H218V65H207.5V68ZM206 53.1429V66.5H209V53.1429H206ZM200.859 67.2658L208.79 53.9087L206.21 52.3771L198.279 65.7342L200.859 67.2658ZM190 68H199.569V65H190V68ZM188.5 33V66.5H191.5V33H188.5ZM193.5 64.5V35H190.5V64.5H193.5ZM198.431 63H192V66H198.431V63ZM208.21 45.0913L197.141 63.7342L199.721 65.2658L210.79 46.6229L208.21 45.0913ZM211 64.5V45.8571H208V64.5H211ZM216 63H209.5V66H216V63ZM214.5 35V64.5H217.5V35H214.5ZM209.569 36.5H216V33.5H209.569V36.5ZM199.79 54.4087L210.859 35.7658L208.279 34.2342L197.21 52.8771L199.79 54.4087ZM197 35V53.6429H200V35H197ZM192 36.5H198.5V33.5H192V36.5ZM151.5 39H144.59V42H151.5V39ZM153 59V40.5H150V59H153ZM140.572 60.5H151.5V57.5H140.572V60.5ZM139.651 57.1449L139.162 58.4869L141.981 59.5131L142.47 58.171L139.651 57.1449ZM139.66 57.1192L139.65 57.1461L142.47 58.1698L142.48 58.1429L139.66 57.1192ZM139.688 57.0409L139.659 57.1216L142.481 58.1406L142.51 58.0599L139.688 57.0409ZM139.749 56.8722L139.687 57.0438L142.511 58.057L142.573 57.8854L139.749 56.8722ZM139.796 56.7413L139.748 56.8749L142.574 57.8827L142.621 57.7491L139.796 56.7413ZM140.163 55.6926C140.016 56.1194 139.887 56.4845 139.795 56.7423L142.622 57.7481C142.716 57.4825 142.848 57.1074 142.999 56.669L140.163 55.6926ZM141.103 52.7914C140.82 53.7478 140.459 54.8327 140.163 55.6926L142.999 56.669C143.301 55.7935 143.678 54.6605 143.979 53.6417L141.103 52.7914ZM142.503 45.5362C142.164 47.983 141.684 50.8232 141.103 52.7914L143.979 53.6417C144.63 51.4415 145.134 48.4095 145.474 45.9474L142.503 45.5362ZM142.883 42.4904C142.797 43.2613 142.669 44.3334 142.503 45.5362L145.474 45.9474C145.645 44.7122 145.776 43.6129 145.864 42.8224L142.883 42.4904ZM142.979 41.5849C142.958 41.7964 142.925 42.1053 142.883 42.4904L145.864 42.8224C145.908 42.4271 145.941 42.1087 145.964 41.889L142.979 41.5849ZM143.003 41.3439C142.998 41.3981 142.99 41.4793 142.979 41.585L145.964 41.889C145.975 41.7791 145.984 41.6938 145.989 41.636L143.003 41.3439ZM143.009 41.2821L143.003 41.3453L145.989 41.6346L145.995 41.5713L143.009 41.2821ZM143.011 41.2646L143.009 41.284L145.996 41.5694L145.997 41.55L143.011 41.2646ZM143.096 40.3595L143.011 41.2668L145.998 41.5478L146.083 40.6405L143.096 40.3595ZM147.852 43.0438C147.867 42.9069 147.881 42.779 147.894 42.661L144.911 42.339C144.899 42.4539 144.885 42.5784 144.87 42.7117L147.852 43.0438ZM147.456 46.2214C147.629 44.9647 147.762 43.8474 147.852 43.0438L144.87 42.7117C144.783 43.4957 144.653 44.5859 144.484 45.8103L147.456 46.2214ZM145.897 54.2086C146.593 51.8538 147.113 48.6941 147.456 46.2214L144.484 45.8103C144.144 48.2673 143.648 51.2353 143.02 53.3583L145.897 54.2086ZM144.89 57.32C145.195 56.434 145.584 55.269 145.897 54.2086L143.02 53.3583C142.725 54.3563 142.353 55.4733 142.054 56.3436L144.89 57.32ZM144.832 57.4893L144.89 57.3211L142.054 56.3424L141.996 56.5107L144.832 57.4893ZM149.5 55.5H143.414V58.5H149.5V55.5ZM148 42.5V57H151V42.5H148ZM146.402 44H149.5V41H146.402V44ZM87.8104 53.0257L84.423 42.8634L81.577 43.8121L84.9644 53.9744L87.8104 53.0257ZM79.6125 55H86.3874V52H79.6125V55ZM81.577 42.8634L78.1895 53.0257L81.0356 53.9744L84.423 43.8121L81.577 42.8634ZM83.6125 50H82.3874V53H83.6125V50ZM81.577 50.1367L82.1895 51.9744L85.0356 51.0257L84.423 49.188L81.577 50.1367ZM83.8104 51.9744L84.423 50.1367L81.577 49.188L80.9644 51.0257L83.8104 51.9744Z" fill="white" mask="url(#path-7-outside-1_162_222)"/>
<path fill-rule="evenodd" clip-rule="evenodd" d="M0.820312 11.2978L35.6067 6.20599L36.2533 16.8022L42.1035 5.80762L72.5966 10.4964L48.1401 47.7262L76.3249 75.4666L40.6574 94.8907L37.208 84.7926L36.9187 92.0803L8.74929 90.9274L0.820312 11.2978ZM35.6348 74.0001L41.7835 92.0001L72.9997 75.0001L45.5673 48.0001L69.2159 12.0001L43.2024 8.0001L34.6889 24.0001L33.743 8.5001L2.99971 13.0001L10.5673 89.0001L34.9997 90.0001L35.6348 74.0001Z" fill="#1A1714"/>
<path d="M7 17.0397L30.1705 13.5166L32.5349 32.6424L44.8295 11L64.2171 14.5232L41.9922 47.7417L68 74.4172L45.7752 87L32.5349 61.3311V86.4967L14.5659 85.4901L7 17.0397Z" fill="#45C1F2"/>
</g>
<defs>
<clipPath id="clip0_162_222">
<rect width="249" height="100" fill="white"/>
</clipPath>
</defs>
</svg>
