<svg width="48" height="48" viewBox="0 0 48 48" fill="none" xmlns="http://www.w3.org/2000/svg">
<path d="M39.2614 40.2962L26.4576 27.4923C25.4677 28.3866 24.3134 29.0685 22.9945 29.538C21.6757 30.0076 20.3493 30.2423 19.0153 30.2423C15.8291 30.2423 13.1326 29.1419 10.9256 26.9409C8.7187 24.74 7.61523 22.0566 7.61523 18.8909C7.61523 15.7252 8.71572 13.0397 10.9167 10.8346C13.1177 8.62948 15.8 7.52692 18.9637 7.52692C22.1274 7.52692 24.8193 8.628 27.0392 10.8302C29.2591 13.0324 30.3691 15.7151 30.3691 18.8782C30.3691 20.2517 30.123 21.5987 29.6307 22.9193C29.1384 24.2398 28.4512 25.3936 27.5691 26.3808L40.3845 39.1346L39.2614 40.2962ZM19.0037 28.7039C21.7591 28.7039 24.0857 27.7584 25.9837 25.8673C27.8817 23.9763 28.8306 21.6487 28.8306 18.8846C28.8306 16.1205 27.8817 13.793 25.9837 11.9019C24.0857 10.0109 21.7591 9.06542 19.0037 9.06542C16.242 9.06542 13.9099 10.0109 12.0074 11.9019C10.105 13.793 9.15373 16.1205 9.15373 18.8846C9.15373 21.6487 10.105 23.9763 12.0074 25.8673C13.9099 27.7584 16.242 28.7039 19.0037 28.7039ZM18.2229 23.4539V19.6231H14.3922V18.0846H18.2229V14.3039H19.7614V18.0846H23.5422V19.6231H19.7614V23.4539H18.2229Z" fill="white"/>
</svg>
