<svg width="22" height="22" viewBox="0 0 22 22" fill="none" xmlns="http://www.w3.org/2000/svg">
<path d="M11 10.9084C11.4736 10.9084 11.8823 10.7366 12.2261 10.3928C12.5698 10.0491 12.7417 9.64038 12.7417 9.16676C12.7417 8.69315 12.5698 8.28447 12.2261 7.94072C11.8823 7.59697 11.4736 7.4251 11 7.4251C10.5264 7.4251 10.1177 7.59697 9.77398 7.94072C9.43023 8.28447 9.25835 8.69315 9.25835 9.16676C9.25835 9.64038 9.43023 10.0491 9.77398 10.3928C10.1177 10.7366 10.5264 10.9084 11 10.9084ZM11 20.6709C8.41807 18.4709 6.48543 16.4313 5.2021 14.5522C3.91877 12.673 3.2771 10.939 3.2771 9.3501C3.2771 6.93621 4.05245 5.01503 5.60314 3.58656C7.15384 2.15808 8.95279 1.44385 11 1.44385C13.0472 1.44385 14.8462 2.15808 16.3969 3.58656C17.9476 5.01503 18.7229 6.93621 18.7229 9.3501C18.7229 10.939 18.0813 12.673 16.7979 14.5522C15.5146 16.4313 13.582 18.4709 11 20.6709Z" fill="white"/>
</svg>
