<svg width="20" height="20" viewBox="0 0 20 20" fill="none" xmlns="http://www.w3.org/2000/svg">
<path d="M9.99996 9.91667C10.4305 9.91667 10.802 9.76042 11.1145 9.44792C11.427 9.13542 11.5833 8.76389 11.5833 8.33333C11.5833 7.90278 11.427 7.53125 11.1145 7.21875C10.802 6.90625 10.4305 6.75 9.99996 6.75C9.5694 6.75 9.19788 6.90625 8.88538 7.21875C8.57288 7.53125 8.41663 7.90278 8.41663 8.33333C8.41663 8.76389 8.57288 9.13542 8.88538 9.44792C9.19788 9.76042 9.5694 9.91667 9.99996 9.91667ZM9.99996 18.7917C7.65274 16.7917 5.89579 14.9375 4.72913 13.2292C3.56246 11.5208 2.97913 9.94444 2.97913 8.5C2.97913 6.30555 3.68399 4.55903 5.09371 3.26042C6.50343 1.96181 8.13885 1.3125 9.99996 1.3125C11.8611 1.3125 13.4965 1.96181 14.9062 3.26042C16.3159 4.55903 17.0208 6.30555 17.0208 8.5C17.0208 9.94444 16.4375 11.5208 15.2708 13.2292C14.1041 14.9375 12.3472 16.7917 9.99996 18.7917Z" fill="#45C1F2"/>
</svg>
