<svg width="59" height="37" viewBox="0 0 59 37" fill="none" xmlns="http://www.w3.org/2000/svg">
<rect width="59" height="37" fill="white"/>
<g clip-path="url(#clip0_51_363)">
<path d="M52.7903 18.5827C52.7925 26.6299 46.5527 33.1548 38.8534 33.1569C31.154 33.1589 24.9115 26.6373 24.9094 18.5901C24.9094 18.5875 24.9094 18.5853 24.9094 18.5827C24.9074 10.5356 31.1472 4.01044 38.8462 4.0083C46.5456 4.00616 52.7883 10.528 52.7903 18.5753C52.7903 18.5778 52.7903 18.5801 52.7903 18.5827Z" fill="#1A1714"/>
<path d="M20.0602 4.01228C12.4065 4.06309 6.20947 10.5713 6.20947 18.5829C6.20947 26.6257 12.4548 33.1533 20.15 33.1533C23.7616 33.1533 27.0536 31.7148 29.5308 29.357C29.5308 29.357 29.5304 29.3566 29.5297 29.3563H29.5327C30.04 28.8732 30.5131 28.3519 30.9479 27.796H28.0919C27.7105 27.3146 27.3639 26.8128 27.0525 26.2952H31.9783C32.2779 25.7941 32.5491 25.2738 32.7898 24.7349H26.2393C26.016 24.2347 25.8222 23.7231 25.6567 23.2041H33.3731C33.8382 21.7517 34.0905 20.1979 34.0905 18.5827C34.0905 17.5119 33.9794 16.4678 33.7692 15.4625H25.2474C25.353 14.9452 25.4863 14.4341 25.6452 13.9319H33.3644C33.1918 13.3975 32.9914 12.8767 32.7634 12.3718H26.2385C26.4739 11.8462 26.7405 11.335 27.0384 10.8413H31.9605C31.633 10.2959 31.2705 9.77474 30.8786 9.28108H28.1342C28.5585 8.75913 29.0256 8.26761 29.5327 7.8093C27.0554 5.45117 23.7624 4.01228 20.15 4.01228C20.1199 4.01228 20.0902 4.01212 20.0602 4.01228Z" fill="#1A1714"/>
<path d="M51.3917 26.1997C51.4676 26.1997 51.5414 26.2203 51.6134 26.2607C51.6858 26.3012 51.7415 26.3595 51.7818 26.4354C51.8221 26.5103 51.8422 26.5894 51.8422 26.6713C51.8422 26.7522 51.8222 26.8305 51.7826 26.9055C51.7431 26.9803 51.6874 27.0387 51.6156 27.0803C51.5447 27.1213 51.4696 27.142 51.3916 27.142C51.3136 27.142 51.2387 27.1213 51.1672 27.0803C51.0956 27.0385 51.0403 26.9805 51 26.9055C50.9603 26.8305 50.9407 26.7522 50.9407 26.6713C50.9407 26.5894 50.9607 26.5103 51.0011 26.4354C51.0417 26.3595 51.0977 26.3017 51.1696 26.2607C51.2423 26.2203 51.3161 26.1997 51.3917 26.1997ZM51.3917 26.2778C51.3287 26.2778 51.267 26.2949 51.2067 26.329C51.1469 26.363 51.1002 26.4112 51.0665 26.475C51.0324 26.5378 51.0154 26.6029 51.0154 26.6713C51.0154 26.7391 51.0321 26.8045 51.065 26.8667C51.0986 26.9287 51.1452 26.9774 51.2047 27.0122C51.2646 27.0469 51.3268 27.064 51.3916 27.064C51.4567 27.064 51.519 27.0469 51.5787 27.0122C51.6381 26.9774 51.6845 26.9287 51.7177 26.8667C51.7506 26.8045 51.767 26.7392 51.767 26.6713C51.767 26.6029 51.7503 26.5376 51.7165 26.475C51.683 26.4112 51.6361 26.363 51.5758 26.329C51.5162 26.2948 51.4548 26.2778 51.3917 26.2778ZM51.1941 26.9315V26.4247H51.3612C51.4179 26.4247 51.4591 26.4293 51.4846 26.4391C51.5101 26.4485 51.5304 26.4645 51.5456 26.488C51.5606 26.5112 51.5683 26.5358 51.5683 26.5621C51.5683 26.5993 51.5557 26.6315 51.5302 26.6588C51.5053 26.6861 51.4715 26.7018 51.4297 26.705C51.4468 26.7124 51.4605 26.7218 51.4712 26.732C51.4909 26.7517 51.5145 26.7851 51.5428 26.8323L51.6018 26.9315H51.5064L51.4637 26.8517C51.4298 26.7889 51.4026 26.7498 51.3817 26.7337C51.3674 26.7223 51.3464 26.7164 51.3192 26.7164H51.2731V26.932H51.1945M51.2725 26.6462H51.3675C51.4128 26.6462 51.4435 26.6389 51.46 26.625C51.4767 26.6105 51.485 26.5921 51.485 26.5687C51.485 26.5536 51.4813 26.5401 51.4732 26.5286C51.4651 26.5166 51.4541 26.508 51.4397 26.502C51.4257 26.4962 51.3996 26.4929 51.3615 26.4929H51.2728V26.6462" fill="#1A1714"/>
<path d="M24.776 22.7635L24.9616 21.4446C24.8602 21.4446 24.711 21.4905 24.5792 21.4905C24.0625 21.4905 23.998 21.2019 24.0386 20.9911L24.5477 18.3386H25.3331L25.495 16.8416H24.7547L24.9055 15.9346H23.357C23.3243 15.9688 22.481 21.036 22.481 21.6533C22.481 22.5668 22.9715 22.9733 23.6635 22.9669C24.205 22.9621 24.6271 22.8054 24.776 22.7635Z" fill="#1A1714"/>
<path d="M25.2461 20.2489C25.2461 22.4413 26.6305 22.9621 27.8102 22.9621C28.8991 22.9621 29.47 22.6983 29.47 22.6983L29.7315 21.2019C29.7315 21.2019 28.8114 21.5929 28.0636 21.5929C26.4697 21.5929 26.7491 20.3507 26.7491 20.3507L29.8113 20.3604C29.8113 20.3604 30.0062 19.3555 30.0062 18.9458C30.0062 17.9235 29.4733 16.6685 27.8437 16.6685C26.3512 16.6688 25.2461 18.3496 25.2461 20.2489ZM27.8493 18.0577C28.687 18.0577 28.5325 19.0417 28.5325 19.1215H26.8846C26.8846 19.0195 27.0402 18.0577 27.8493 18.0577Z" fill="#1A1714"/>
<path d="M37.2481 22.7628L37.5139 21.0717C37.5139 21.0717 36.7851 21.4533 36.2856 21.4533C35.2325 21.4533 34.8101 20.613 34.8101 19.7101C34.8101 17.8786 35.716 16.8709 36.7245 16.8709C37.481 16.8709 38.0878 17.3148 38.0878 17.3148L38.3301 15.6715C38.3301 15.6715 37.6136 15.1306 36.8424 15.1275C34.5225 15.1179 33.1951 16.8061 33.1951 19.7245C33.1951 21.6589 34.1781 22.9753 35.9493 22.9753C36.4501 22.9753 37.2481 22.7628 37.2481 22.7628Z" fill="#1A1714"/>
<path d="M16.6124 16.6929C15.5946 16.6929 14.8145 17.0348 14.8145 17.0348L14.599 18.3712C14.599 18.3712 15.2429 18.0977 16.2165 18.0977C16.7692 18.0977 17.1736 18.1627 17.1736 18.6322C17.1736 18.9173 17.1242 19.0226 17.1242 19.0226C17.1242 19.0226 16.688 18.9846 16.486 18.9846C15.037 18.9846 13.854 19.5572 13.854 21.2835C13.854 22.644 14.7387 22.9559 15.287 22.9559C16.3344 22.9559 16.7489 22.2647 16.7729 22.2628L16.7607 22.8364H18.0677L18.6508 18.5641C18.6508 16.7511 17.1379 16.6929 16.6124 16.6929ZM16.8386 20.162C16.8671 20.4228 16.7741 21.6561 15.8801 21.6561C15.4192 21.6561 15.2994 21.2878 15.2994 21.0704C15.2994 20.6455 15.5202 20.1358 16.6077 20.1358C16.861 20.1358 16.796 20.1549 16.8386 20.162Z" fill="#1A1714"/>
<path d="M20.0397 22.9246C20.374 22.9246 22.2852 23.0135 22.2852 20.9522C22.2852 19.0248 20.5161 19.4058 20.5161 18.6312C20.5161 18.2461 20.8045 18.1248 21.3317 18.1248C21.5408 18.1248 22.3461 18.1943 22.3461 18.1943L22.5331 16.8245C22.5331 16.8245 22.012 16.7026 21.1637 16.7026C20.0657 16.7026 18.9511 17.1608 18.9511 18.7283C18.9511 20.5046 20.8095 20.3262 20.8095 21.0744C20.8095 21.5738 20.2903 21.6149 19.8901 21.6149C19.1977 21.6149 18.5743 21.3664 18.5721 21.3784L18.374 22.7343C18.4101 22.7458 18.7947 22.9246 20.0397 22.9246Z" fill="#1A1714"/>
<path d="M49.4914 15.4507L49.2231 17.5406C49.2231 17.5406 48.6641 16.734 47.7895 16.734C46.1439 16.734 45.2959 18.448 45.2959 20.4169C45.2959 21.6881 45.9007 22.9341 47.1365 22.9341C48.0256 22.9341 48.5186 22.286 48.5186 22.286L48.4533 22.8393H49.8973L51.0312 15.462L49.4914 15.4507ZM48.8538 19.5126C48.8538 20.3321 48.4655 21.4268 47.6611 21.4268C47.1268 21.4268 46.8763 20.9579 46.8763 20.2224C46.8763 19.0195 47.3932 18.226 48.0456 18.226C48.5796 18.226 48.8538 18.6092 48.8538 19.5126Z" fill="#1A1714"/>
<path d="M8.57552 22.8454L9.47909 17.2756L9.61188 22.8454H10.6344L12.5421 17.2756L11.697 22.8454H13.2165L14.3866 15.4582L11.9728 15.439L10.537 19.9618L10.4977 15.4582H8.28556L7.09863 22.8454H8.57552Z" fill="#1A1714"/>
<path d="M31.4443 22.8562C31.8764 20.2884 32.0302 18.2604 33.2902 18.6804C33.4711 17.6865 33.9023 16.8222 34.0993 16.4015C34.0993 16.4015 34.037 16.3047 33.6476 16.3047C32.9829 16.3047 32.0954 17.7146 32.0954 17.7146L32.228 16.8429H30.8457L29.9199 22.856L31.4443 22.8562Z" fill="#1A1714"/>
<path d="M40.3569 16.6929C39.3387 16.6929 38.5586 17.0348 38.5586 17.0348L38.3432 18.3712C38.3432 18.3712 38.9875 18.0977 39.9606 18.0977C40.5135 18.0977 40.9176 18.1627 40.9176 18.6322C40.9176 18.9173 40.8684 19.0226 40.8684 19.0226C40.8684 19.0226 40.4324 18.9846 40.2304 18.9846C38.7812 18.9846 37.5984 19.5572 37.5984 21.2835C37.5984 22.644 38.4829 22.9559 39.0312 22.9559C40.0783 22.9559 40.4932 22.2647 40.5169 22.2628L40.5046 22.8364H41.8119L42.3949 18.5641C42.395 16.7511 40.8821 16.6929 40.3569 16.6929ZM40.5828 20.162C40.6112 20.4228 40.5182 21.6561 39.6244 21.6561C39.1631 21.6561 39.0435 21.2878 39.0435 21.0704C39.0435 20.6455 39.2641 20.1358 40.3517 20.1358C40.6052 20.1358 40.5404 20.1549 40.5828 20.162Z" fill="#1A1714"/>
<path d="M43.8995 22.8557C44.1367 20.9666 44.5759 18.3144 45.7452 18.68C45.9259 17.6861 45.7516 17.6887 45.3624 17.6887C44.6972 17.6887 44.5499 17.714 44.5499 17.714L44.6827 16.8423H43.3005L42.3748 22.8555L43.8995 22.8557Z" fill="#1A1714"/>
<path d="M25.1633 22.2919L25.3491 20.9733C25.2476 20.9733 25.0983 21.0186 24.9666 21.0186C24.4499 21.0186 24.393 20.7315 24.4258 20.5192L24.8432 17.8286H25.6285L25.8181 16.37H25.0777L25.2284 15.4629H23.7441C23.7114 15.4971 22.8679 20.5645 22.8679 21.1814C22.8679 22.0949 23.3586 22.5018 24.0506 22.4952C24.5925 22.4904 25.0144 22.3337 25.1633 22.2919Z" fill="white"/>
<path d="M25.6335 19.7779C25.6335 21.9703 27.0181 22.4912 28.1976 22.4912C29.2864 22.4912 29.7654 22.2368 29.7654 22.2368L30.0269 20.7405C30.0269 20.7405 29.1987 21.1219 28.4508 21.1219C26.857 21.1219 27.1361 19.8798 27.1361 19.8798H30.1525C30.1525 19.8798 30.3473 18.8746 30.3473 18.465C30.3473 17.4428 29.8605 16.1973 28.2308 16.1973C26.7383 16.1976 25.6335 17.8784 25.6335 19.7779ZM28.2365 17.5867C29.0741 17.5867 28.9196 18.5705 28.9196 18.6501H27.2717C27.2717 18.5485 27.4275 17.5867 28.2365 17.5867Z" fill="white"/>
<path d="M37.6354 22.2917L37.9009 20.6004C37.9009 20.6004 37.1726 20.9821 36.6728 20.9821C35.6199 20.9821 35.1976 20.1417 35.1976 19.2389C35.1976 17.4075 36.1036 16.4 37.1121 16.4C37.8684 16.4 38.4754 16.8438 38.4754 16.8438L38.7177 15.2005C38.7177 15.2005 37.8176 14.8198 37.046 14.8198C35.3325 14.8198 33.6655 16.3735 33.6655 19.2914C33.6655 21.2263 34.5656 22.5041 36.3369 22.5041C36.8377 22.5043 37.6354 22.2917 37.6354 22.2917Z" fill="white"/>
<path d="M16.9995 16.2217C15.9817 16.2217 15.2015 16.5636 15.2015 16.5636L14.9861 17.9C14.9861 17.9 15.6301 17.6265 16.6035 17.6265C17.1562 17.6265 17.5605 17.6915 17.5605 18.161C17.5605 18.4461 17.511 18.5514 17.511 18.5514C17.511 18.5514 17.075 18.5132 16.8732 18.5132C15.5895 18.5132 14.241 19.0858 14.241 20.8121C14.241 22.1724 15.1257 22.4845 15.674 22.4845C16.7212 22.4845 17.1726 21.7743 17.1966 21.7722L17.1477 22.365H18.4547L19.0377 18.0926C19.0377 16.2801 17.525 16.2217 16.9995 16.2217ZM17.3175 19.7003C17.3458 19.9613 17.1609 21.1846 16.2673 21.1846C15.8063 21.1846 15.6864 20.8166 15.6864 20.5989C15.6864 20.1743 15.9071 19.6645 16.9948 19.6645C17.2478 19.6648 17.2748 19.6931 17.3175 19.7003Z" fill="white"/>
<path d="M20.427 22.4535C20.7613 22.4535 22.6726 22.5423 22.6726 20.481C22.6726 18.5539 20.9034 18.9346 20.9034 18.1604C20.9034 17.7749 21.1918 17.6536 21.7189 17.6536C21.9281 17.6536 22.7332 17.7231 22.7332 17.7231L22.9204 16.3533C22.9204 16.3533 22.3993 16.2314 21.551 16.2314C20.453 16.2314 19.3384 16.6896 19.3384 18.2571C19.3384 20.0332 21.1968 19.855 21.1968 20.6032C21.1968 21.1026 20.6776 21.1432 20.2775 21.1432C19.5851 21.1432 18.9616 20.8949 18.9594 20.9068L18.7615 22.2628C18.7973 22.2743 19.1819 22.4535 20.427 22.4535Z" fill="white"/>
<path d="M49.9302 14.9927L49.61 17.0691C49.61 17.0691 49.0513 16.2625 48.1767 16.2625C46.8167 16.2625 45.6831 17.9764 45.6831 19.9456C45.6831 21.2168 46.2877 22.4623 47.5237 22.4623C48.4128 22.4623 48.9058 21.8144 48.9058 21.8144L48.8405 22.3677H50.2842L51.4181 14.9902L49.9302 14.9927ZM49.2409 19.0413C49.2409 19.8608 48.8527 20.9553 48.048 20.9553C47.5138 20.9553 47.2635 20.4866 47.2635 19.7511C47.2635 18.5483 47.7804 17.7547 48.4325 17.7547C48.9668 17.7545 49.2409 18.1382 49.2409 19.0413Z" fill="white"/>
<path d="M8.96284 22.3746L9.86641 16.8049L9.99904 22.3746H11.0217L12.9294 16.8049L12.0843 22.3746H13.6039L14.7741 14.9873H12.4243L10.961 19.5199L10.8848 14.9873H8.71882L7.53174 22.3746H8.96284Z" fill="white"/>
<path d="M31.8316 22.3841C32.2637 19.8162 32.3437 17.731 33.3747 18.1127C33.5552 17.1188 33.7294 16.7343 33.9264 16.3137C33.9264 16.3137 33.834 16.2935 33.6402 16.2935C32.9754 16.2935 32.483 17.2426 32.483 17.2426L32.6153 16.3709H31.2333L30.3074 22.3841H31.8316Z" fill="white"/>
<path d="M41.0604 16.2217C40.0426 16.2217 39.2624 16.5636 39.2624 16.5636L39.0471 17.9C39.0471 17.9 39.6911 17.6265 40.6645 17.6265C41.2172 17.6265 41.6213 17.6915 41.6213 18.161C41.6213 18.4461 41.572 18.5514 41.572 18.5514C41.572 18.5514 41.136 18.5132 40.934 18.5132C39.6505 18.5132 38.302 19.0858 38.302 20.8121C38.302 22.1724 39.1865 22.4845 39.7348 22.4845C40.782 22.4845 41.2334 21.7743 41.2574 21.7722L41.2087 22.365C41.2087 22.365 42.5152 22.365 42.5157 22.365L43.0986 18.0926C43.0988 16.2801 41.5859 16.2217 41.0604 16.2217ZM41.3788 19.7003C41.4071 19.9613 41.2221 21.1846 40.3281 21.1846C39.8672 21.1846 39.7476 20.8166 39.7476 20.5989C39.7476 20.1743 39.9683 19.6645 41.0558 19.6645C41.3088 19.6648 41.3357 19.6931 41.3788 19.7003Z" fill="white"/>
<path d="M44.2931 22.3841C44.7253 19.8162 44.8054 17.731 45.8361 18.1127C46.0169 17.1188 46.1912 16.7343 46.388 16.3137C46.388 16.3137 46.2957 16.2935 46.1018 16.2935C45.4371 16.2935 44.9446 17.2426 44.9446 17.2426L45.077 16.3709H43.6949L42.769 22.3841H44.2931Z" fill="white"/>
<path d="M51.3862 21.4565C51.4616 21.4565 51.5358 21.4768 51.6074 21.5179C51.6796 21.5577 51.7358 21.6162 51.7761 21.692C51.8165 21.7673 51.8363 21.8458 51.8363 21.9278C51.8363 22.0089 51.8165 22.0872 51.7767 22.162C51.7372 22.2368 51.6817 22.2955 51.6101 22.3368C51.5387 22.3779 51.4638 22.3986 51.386 22.3986C51.3077 22.3986 51.2328 22.3779 51.1612 22.3368C51.0898 22.2952 51.0344 22.2368 50.9948 22.162C50.9545 22.0872 50.9348 22.0089 50.9348 21.9278C50.9348 21.8458 50.9548 21.7673 50.9952 21.692C51.0358 21.6162 51.0921 21.558 51.164 21.5179C51.2366 21.4768 51.3108 21.4565 51.3862 21.4565ZM51.3862 21.5342C51.3231 21.5342 51.2614 21.5513 51.2012 21.5856C51.1411 21.6192 51.0944 21.6677 51.0605 21.7312C51.0269 21.7938 51.0099 21.8594 51.0099 21.9275C51.0099 21.9956 51.0262 22.0607 51.0591 22.1229C51.0926 22.1849 51.1392 22.2335 51.1993 22.2686C51.2588 22.3028 51.3209 22.32 51.3862 22.32C51.451 22.32 51.5136 22.3028 51.5731 22.2686C51.6326 22.2335 51.6792 22.1849 51.7122 22.1229C51.7454 22.0602 51.7616 21.9956 51.7616 21.9275C51.7616 21.8594 51.7448 21.7938 51.7111 21.7312C51.6776 21.6677 51.6309 21.6192 51.5704 21.5856C51.5107 21.5514 51.4495 21.5342 51.3862 21.5342ZM51.1888 22.188V21.681H51.3557C51.4125 21.681 51.454 21.6858 51.4792 21.6955C51.5047 21.7045 51.5247 21.7208 51.5402 21.7443C51.5555 21.7677 51.5632 21.7922 51.5632 21.8185C51.5632 21.8555 51.5503 21.8879 51.5248 21.9152C51.5 21.9425 51.4664 21.9583 51.4246 21.9612C51.4413 21.9688 51.4551 21.9778 51.4658 21.988C51.4852 22.0081 51.5091 22.0416 51.5374 22.0885L51.5967 22.1878H51.5009L51.4583 22.1081C51.4243 22.0451 51.3971 22.006 51.3763 21.99C51.362 21.9783 51.3411 21.9726 51.3135 21.9726H51.2677V22.1882L51.1888 22.188ZM51.2671 21.9027H51.3621C51.4076 21.9027 51.4383 21.8956 51.4546 21.8815C51.4712 21.8677 51.4798 21.8487 51.4798 21.8252C51.4798 21.8103 51.4759 21.7968 51.468 21.7854C51.46 21.7733 51.4488 21.7645 51.4345 21.7585C51.4202 21.7527 51.3945 21.7497 51.3562 21.7497H51.2673V21.9027" fill="white"/>
</g>
<defs>
<clipPath id="clip0_51_363">
<rect width="47.2" height="29.6" fill="white" transform="translate(5.8999 3.70068)"/>
</clipPath>
</defs>
</svg>
