<svg width="59" height="37" viewBox="0 0 59 37" fill="none" xmlns="http://www.w3.org/2000/svg">
<rect width="59" height="37" fill="white"/>
<g clip-path="url(#clip0_51_359)">
<path d="M35.264 11.8594C32.3868 11.8594 29.8156 13.2839 29.8156 15.9158C29.8156 18.9341 34.3757 19.1425 34.3757 20.6588C34.3757 21.2973 33.6098 21.8688 32.3015 21.8688C30.4448 21.8688 29.0572 21.0702 29.0572 21.0702L28.4634 23.7261C28.4634 23.7261 30.062 24.4006 32.1843 24.4006C35.33 24.4006 37.8053 22.9062 37.8053 20.2293C37.8053 17.0399 33.2262 16.8377 33.2262 15.4303C33.2262 14.9301 33.855 14.3821 35.1595 14.3821C36.6314 14.3821 37.8323 14.9629 37.8323 14.9629L38.4134 12.3978C38.4134 12.3978 37.1067 11.8594 35.264 11.8594ZM8.94027 12.053L8.87061 12.4402C8.87061 12.4402 10.0811 12.6518 11.1713 13.0739C12.575 13.5579 12.675 13.8397 12.9114 14.7149L15.4876 24.201H18.9409L24.2611 12.053H20.8156L17.3971 20.3125L16.0022 13.3113C15.8742 12.5101 15.2262 12.053 14.433 12.053H8.94027ZM25.6465 12.053L22.9437 24.201H26.2292L28.9226 12.053H25.6465ZM43.971 12.053C43.1788 12.053 42.759 12.4581 42.451 13.1661L37.6375 24.201H41.083L41.7496 22.3618H45.9471L46.3524 24.201H49.3925L46.7404 12.053H43.971ZM44.4191 15.335L45.4404 19.8935H42.7043L44.4191 15.335Z" fill="#1A1714"/>
</g>
<defs>
<clipPath id="clip0_51_359">
<rect width="40.5625" height="12.58" fill="white" transform="translate(8.84985 11.8398)"/>
</clipPath>
</defs>
</svg>
