<svg width="59" height="37" viewBox="0 0 59 37" fill="none" xmlns="http://www.w3.org/2000/svg">
<rect width="59" height="37" fill="white"/>
<path fill-rule="evenodd" clip-rule="evenodd" d="M12.3926 12.7047C12.7868 12.7023 13.9586 12.5985 14.4549 14.2464C14.7892 15.3564 15.3218 17.1746 16.0526 19.7011H16.3502C17.134 17.0375 17.6724 15.2192 17.9654 14.2464C18.4669 12.5814 19.7206 12.7047 20.2221 12.7047L24.0913 12.7047V24.5447H20.1478V17.5672H19.8833L17.685 24.5447H14.7179L12.5196 17.562H12.2551V24.5447H8.31152V12.7047L12.3926 12.7047ZM29.7543 12.7047V19.6874H30.0688L32.7429 13.9456C33.262 12.8029 34.3684 12.7047 34.3684 12.7047H38.1846V24.5447H34.1586V17.562H33.844L31.2224 23.3038C30.7033 24.4413 29.5445 24.5447 29.5445 24.5447H25.7283V12.7047H29.7543ZM52.1001 18.3311C51.5385 19.8966 49.7749 21.0177 47.8224 21.0177H43.6004V24.5447H39.7719V18.3311H52.1001Z" fill="#1A1714"/>
<path fill-rule="evenodd" clip-rule="evenodd" d="M48.0071 12.7046H39.5713C39.7721 15.3406 42.0797 17.5971 44.4685 17.5971H52.3662C52.8219 15.4063 51.253 12.7046 48.0071 12.7046Z" fill="#1A1714"/>
</svg>
