<svg width="59" height="37" viewBox="0 0 59 37" fill="none" xmlns="http://www.w3.org/2000/svg">
<rect width="59.0001" height="37" fill="white"/>
<path d="M30.7581 20.75H22.125V17.9916H30.6632C31.3068 17.9916 31.8343 17.8962 32.2458 17.7054C32.6573 17.5146 32.9606 17.2444 33.1558 16.8946C33.351 16.5448 33.4486 16.1315 33.4486 15.6545C33.4486 15.1882 33.351 14.7669 33.1558 14.3906C32.9606 14.0143 32.6626 13.7149 32.2616 13.4923C31.8607 13.2698 31.3595 13.1585 30.7581 13.1585H27.8303V26.6404H24.4277V10.3604H30.7581C32.0401 10.3604 33.1373 10.5909 34.05 11.0519C34.9679 11.5077 35.6695 12.133 36.1549 12.9279C36.6402 13.7176 36.8802 14.6132 36.8749 15.6148C36.8802 16.6641 36.6349 17.5729 36.139 18.3414C35.6431 19.1098 34.9362 19.7033 34.0183 20.122C33.1004 20.5407 32.0137 20.75 30.7581 20.75ZM31.3675 21.7993V24.5577H22.125V21.7993H31.3675Z" fill="#1A1714"/>
</svg>
