<svg width="18" height="18" viewBox="0 0 18 18" fill="none" xmlns="http://www.w3.org/2000/svg">
<path d="M14.925 15.7314L9.99375 10.8002C9.61875 11.1252 9.18151 11.3783 8.68202 11.5596C8.18253 11.7408 7.65103 11.8314 7.0875 11.8314C5.73548 11.8314 4.59122 11.3627 3.65473 10.4252C2.71824 9.4877 2.25 8.35645 2.25 7.03145C2.25 5.70645 2.71875 4.5752 3.65625 3.6377C4.59375 2.7002 5.72813 2.23145 7.05938 2.23145C8.39063 2.23145 9.52188 2.7002 10.4531 3.6377C11.3844 4.5752 11.85 5.70738 11.85 7.03426C11.85 7.56988 11.7625 8.0877 11.5875 8.5877C11.4125 9.0877 11.15 9.55645 10.8 9.99395L15.75 14.9064L14.925 15.7314ZM7.06875 10.7064C8.08438 10.7064 8.94766 10.3471 9.65859 9.62832C10.3695 8.90957 10.725 8.04395 10.725 7.03145C10.725 6.01895 10.3695 5.15332 9.65859 4.43457C8.94766 3.71582 8.08438 3.35645 7.06875 3.35645C6.04271 3.35645 5.17057 3.71582 4.45234 4.43457C3.73411 5.15332 3.375 6.01895 3.375 7.03145C3.375 8.04395 3.73411 8.90957 4.45234 9.62832C5.17057 10.3471 6.04271 10.7064 7.06875 10.7064Z" fill="#1A1714"/>
</svg>
